<svg id="ALEKS_LOGO" data-name="ALEKS LOGO" xmlns="http://www.w3.org/2000/svg" viewBox="0 0 196.58 46.55"><defs><style>.cls-1{fill:#e21a23;}.cls-2{fill:#fff;}.cls-3{fill:#003e7e;}</style></defs><title>ALEKS_logo_2019_RGB</title><rect class="cls-1" width="46.55" height="46.55"/><path class="cls-2" d="M15.38,15.05l-.71-7.51-2.54,7.51H9.65L7,7.52l-.55,7.53H3.79L5,3.76H8.21L11,11.53l2.64-7.77h3.23l1.26,11.29Z"/><path class="cls-2" d="M23.89,15.3a4.22,4.22,0,0,1-4.4-4.41A4.43,4.43,0,0,1,24,6.4a4.2,4.2,0,0,1,3,1L26,9.09a3,3,0,0,0-1.57-.51,2.14,2.14,0,0,0-2.2,2.26c0,1.33.66,2.28,2,2.28a3.77,3.77,0,0,0,1.9-.61l1,1.69A5,5,0,0,1,23.89,15.3Z"/><path class="cls-2" d="M10.33,42.76V38H6.58v4.72H3.8V31.47H6.58v4.31h3.75V31.47h2.79V42.76Z"/><path class="cls-2" d="M16.84,34.22a1.46,1.46,0,0,1,0-2.92,1.46,1.46,0,0,1,0,2.92Zm-1.37,8.54V35.51h2.71v7.25Z"/><path class="cls-2" d="M20.51,42.76V31.47H23.1V42.76Z"/><path class="cls-2" d="M25.44,42.76V31.47H28V42.76Z"/><path class="cls-2" d="M8.87,29.08A5.54,5.54,0,0,1,3,23.24a5.73,5.73,0,0,1,6.09-6,5.4,5.4,0,0,1,4,1.32l-1.21,1.79a4.45,4.45,0,0,0-2.64-.81,3.29,3.29,0,0,0-3.41,3.57c0,2.52,1.6,3.69,3.38,3.69a5.27,5.27,0,0,0,1.51-.2V25H8.62v-2h4.5v4.91A6.71,6.71,0,0,1,8.87,29.08Z"/><path class="cls-2" d="M40.54,28.59H37.78l-1.37-5.18-1.25,5.18H32.5L30.1,20.2h2.57L34,25.61l1.39-5.41h2.28l1.39,5.41,1.27-5.41h2.47Z"/><path class="cls-2" d="M20.37,22.16a2.51,2.51,0,0,0-2.18,1.16v5.31H15.47V20.19h2.24v1.12a3.72,3.72,0,0,1,2.82-1.38h.18l.16,0-.5,2.2Z"/><path class="cls-2" d="M26.75,28.66V28a3.71,3.71,0,0,1-2.38.9,2.59,2.59,0,0,1-2.74-2.76c0-2.65,3.76-2.88,4.65-2.88h.18c0-.27.07-.78-.2-1a1.48,1.48,0,0,0-1-.27,5.24,5.24,0,0,0-1.75.33l-.39.15h0l-.83-1.65h0a4.86,4.86,0,0,1,.43-.23A6.23,6.23,0,0,1,25.39,20a4,4,0,0,1,2.93,1A3.58,3.58,0,0,1,29,23.73v4.93Zm-.25-3.94c-.65,0-1.84,0-2.33.46a.92.92,0,0,0-.29.71,1,1,0,0,0,1.05,1,2.8,2.8,0,0,0,1.57-.47Z"/><path class="cls-3" d="M69.69,8.88,57.78,37.67H65L67.75,31h11l2.76,6.69h7.17L76.72,8.88Zm-.56,17,4.1-10.06,4.1,10.06ZM101,32.47a16.29,16.29,0,0,1-1.73-.19,4.44,4.44,0,0,1-1.18-.37,4.13,4.13,0,0,1-.91-.63,5.94,5.94,0,0,1-.67-.69,2.4,2.4,0,0,1-.39-.93A9.73,9.73,0,0,1,95.89,28c0-.7-.1-1.69-.15-3V8.88H89.61V25c0,1.5.06,2.82.17,3.95a12.52,12.52,0,0,0,.52,2.7,8,8,0,0,0,2.27,3.5,9.18,9.18,0,0,0,3.77,2l1.06.23a6.32,6.32,0,0,0,1.21.15c.47,0,1,.06,1.7.07l2.51,0h6.51V32.54h-5.87C102.48,32.54,101.66,32.51,101,32.47ZM120.32,9a14.37,14.37,0,0,0-2,.39,7.34,7.34,0,0,0-1.7.71,10.78,10.78,0,0,0-1.55,1.1q-4.89,4.11-4.88,11.92a20.21,20.21,0,0,0,1,6.47,12.69,12.69,0,0,0,2.83,4.83A9,9,0,0,0,115.81,36a9.07,9.07,0,0,0,2.36,1,19.74,19.74,0,0,0,3.08.54c1.17.11,2.51.17,4,.17h8V32.54h-7.72a17.29,17.29,0,0,1-3.74-.35,6.36,6.36,0,0,1-2.52-1.12,4.91,4.91,0,0,1-1.51-2,10.53,10.53,0,0,1-.69-3.11h16.18V20.8H117.09c0-.72.11-1.31.17-1.77a9.14,9.14,0,0,1,.22-1.19,4.22,4.22,0,0,1,.32-.89,5.6,5.6,0,0,1,1.58-1.83,4.41,4.41,0,0,1,1.36-.65,9.89,9.89,0,0,1,1.89-.34c.74-.07,1.62-.11,2.66-.11h8V8.88H122.91A24.57,24.57,0,0,0,120.32,9Zm34.53-.13-11,14.2,10.4,14.59h8.07L150.88,23.08l12-14.2ZM137.5,37.67h6.12V8.88H137.5Zm52.93-12.08A6.61,6.61,0,0,0,185.7,21a19,19,0,0,0-5-.54H176a17,17,0,0,1-2.48-.13,3.72,3.72,0,0,1-1.45-.51,2.87,2.87,0,0,1-1.34-2.64,2.8,2.8,0,0,1,1.38-2.72,3.5,3.5,0,0,1,1.45-.38c.62-.06,1.6-.09,3-.09h12.87V8.88H175.17l-2.2,0c-.63,0-1.18,0-1.66.09a8.27,8.27,0,0,0-1.27.2,7.1,7.1,0,0,0-1,.3,6.88,6.88,0,0,0-3.62,2.95A9.06,9.06,0,0,0,164,17.38a8.89,8.89,0,0,0,.71,3.57,7.6,7.6,0,0,0,2,2.78,7,7,0,0,0,2.88,1.45,17.65,17.65,0,0,0,4.33.45h5.31a11.28,11.28,0,0,1,1.84.13,4,4,0,0,1,1.27.39,3.22,3.22,0,0,1,1.36,1.25,3.44,3.44,0,0,1,.49,1.81,2.86,2.86,0,0,1-1.42,2.63,4.13,4.13,0,0,1-1.55.52,16.11,16.11,0,0,1-2.72.18H165.38v5.13h14.45c1.07,0,2,0,2.77-.06s1.46-.11,2.05-.2a8.75,8.75,0,0,0,1.53-.34,5.76,5.76,0,0,0,1.17-.56,7.31,7.31,0,0,0,2.67-3,9.41,9.41,0,0,0,1-4.3A11.21,11.21,0,0,0,190.43,25.59Z"/><path class="cls-3" d="M192,11.19a2.29,2.29,0,1,1,2.28,2.28A2.28,2.28,0,0,1,192,11.19Zm.3,0a2,2,0,1,0,2-2A2,2,0,0,0,192.31,11.19Zm1.93.28h-.48v1h-.34V9.89h1.07a.79.79,0,0,1,.83.79.77.77,0,0,1-.67.78l.7,1h-.43Zm-.48-1.28v1h.73a.49.49,0,0,0,0-1Z"/></svg>