<svg width="1440" height="440" viewBox="0 0 1440 440" fill="none" xmlns="http://www.w3.org/2000/svg">
<path d="M494.48 147.93L468.83 173.617V267.617L494.48 293.304H542.926L569.553 267.654V248.314H535.791L535.753 253.722L530.158 259.467H508.488L502.63 253.609V187.625L508.488 181.729H529.857L535.753 187.625L535.904 192.92H569.553V173.617L543.865 147.93H494.48Z" fill="#033B6D"></path>
<path d="M602.693 293.304H703.416V259.467H636.493V237.498H669.955V203.699H636.493V181.767H703.416V147.93H602.693V293.304Z" fill="#033B6D"></path>
<path d="M770.37 181.729H797.635L803.494 187.625V197.99L797.898 203.774H770.37V181.729ZM837.293 211.773V173.58L811.681 147.93H736.57V293.267H770.37V237.498H779.909L803.794 293.267H840.373L815.361 233.179L837.293 211.773Z" fill="#033B6D"></path>
<path d="M870.377 293.304H971.1V259.467H904.177V237.498H937.638V203.699H904.177V181.767H971.1V147.93H870.377V293.304Z" fill="#033B6D"></path>
<path d="M1038.03 259.467V237.498H1065.3L1071.16 243.394V253.571L1065.3 259.467H1038.03ZM1038.03 203.699V181.729H1065.3L1071.16 187.625V197.99L1065.3 203.886L1038.03 203.699ZM1004.23 147.93V293.267H1079.34L1104.99 267.617V229.386L1096.24 220.523L1104.99 211.773V173.58L1079.34 147.93H1004.23Z" fill="#033B6D"></path>
<path d="M1171.85 181.729H1199.11L1204.97 187.625V197.99L1199.41 203.774H1171.85V181.729ZM1238.81 211.773V173.58L1213.16 147.93H1138.05V293.267H1171.85V237.498H1181.39L1205.08 293.267H1241.66L1216.65 233.179L1238.81 211.773Z" fill="#033B6D"></path>
<path d="M1336.47 147.93L1322.27 178.274L1308.08 147.93H1270.75L1305.37 221.913V293.304H1339.17V221.913L1373.8 147.93H1336.47Z" fill="#033B6D"></path>
<path d="M371.237 366.125C369.84 366.132 368.473 365.727 367.309 364.957C366.141 364.187 365.232 363.086 364.691 361.802C364.151 360.514 364 359.094 364.267 357.724C364.53 356.353 365.198 355.091 366.179 354.1C367.163 353.104 368.417 352.428 369.784 352.147C371.151 351.869 372.574 352 373.866 352.526C375.158 353.056 376.266 353.953 377.047 355.11C377.828 356.266 378.253 357.63 378.26 359.027C378.26 360.897 377.52 362.688 376.206 364.018C374.891 365.347 373.104 366.106 371.237 366.125ZM318.36 332.325V331.95C318.367 330.369 318.127 328.799 317.646 327.293L345.7 305.285C346.77 305.542 347.867 305.668 348.967 305.661H349.831L364.102 345.995C361.89 347.201 360.016 348.943 358.656 351.065L318.36 332.325ZM326.622 371.082H325.458C321.473 371.082 317.65 372.663 314.833 375.48C312.017 378.3 310.436 382.119 310.436 386.104C310.398 386.69 310.398 387.279 310.436 387.869L287.302 399.886C286.596 398.606 285.638 397.483 284.485 396.582L300.258 346.521C301.362 346.795 302.496 346.945 303.638 346.972C306.154 346.964 308.629 346.322 310.834 345.109C313.038 343.896 314.901 342.146 316.257 340.024L323.43 343.404L326.622 371.082ZM325.458 393.014C324.061 393.014 322.694 392.601 321.533 391.823C320.373 391.046 319.468 389.946 318.934 388.654C318.397 387.366 318.258 385.946 318.533 384.575C318.803 383.205 319.475 381.946 320.463 380.963C321.451 379.975 322.709 379.303 324.079 379.028C325.45 378.754 326.87 378.897 328.158 379.43C329.45 379.964 330.55 380.869 331.328 382.029C332.101 383.193 332.518 384.557 332.518 385.954C332.518 387.824 331.774 389.623 330.449 390.945C329.123 392.27 327.328 393.014 325.458 393.014ZM277.913 408.036C277.316 408.036 276.737 407.859 276.242 407.529C275.75 407.198 275.363 406.729 275.138 406.181C274.909 405.632 274.848 405.028 274.965 404.446C275.081 403.86 275.367 403.326 275.787 402.906C276.208 402.485 276.741 402.2 277.327 402.083C277.909 401.967 278.514 402.027 279.062 402.256C279.61 402.481 280.08 402.868 280.41 403.36C280.741 403.856 280.917 404.434 280.917 405.031C280.917 405.816 280.602 406.571 280.046 407.127C279.49 407.683 278.735 407.998 277.951 407.998L277.913 408.036ZM226.688 383.475L243.926 353.769C244.842 353.931 245.77 354.021 246.705 354.032C247.869 354.024 249.026 353.889 250.16 353.619L268.937 398.685C268.336 399.526 267.856 400.45 267.51 401.426L230.406 395.342C230.443 394.978 230.443 394.614 230.406 394.253C230.526 392.297 230.256 390.336 229.61 388.485C228.967 386.637 227.961 384.932 226.65 383.475H226.688ZM222.594 393.84C222.504 395.215 222.016 396.533 221.19 397.633C220.364 398.733 219.233 399.567 217.938 400.033C216.642 400.499 215.237 400.574 213.9 400.254C212.56 399.931 211.347 399.229 210.404 398.226C209.461 397.22 208.83 395.966 208.594 394.61C208.353 393.254 208.519 391.857 209.063 390.592C209.608 389.33 210.513 388.252 211.662 387.493C212.811 386.738 214.156 386.333 215.534 386.329H215.91C216.841 386.378 217.757 386.611 218.602 387.013C219.443 387.418 220.198 387.985 220.822 388.688C221.445 389.386 221.922 390.201 222.226 391.084C222.53 391.97 222.654 392.905 222.594 393.84ZM234.65 347.76C235.311 348.684 236.08 349.529 236.94 350.276L219.966 379.194C218.745 378.818 217.483 378.589 216.21 378.518C214.948 378.458 213.683 378.574 212.455 378.856L205.319 359.74L234.65 347.76ZM175.388 363.684C173.769 360.48 171.058 357.96 167.745 356.586C164.433 355.207 160.734 355.061 157.324 356.173L132.537 326.767C134.445 324.75 135.756 322.242 136.327 319.523C136.897 316.808 136.702 313.983 135.767 311.37L160.253 295.483C162.525 297.095 165.206 298.032 167.989 298.187H168.816C170.663 298.185 172.496 297.841 174.223 297.173L195.48 355.384L175.388 363.684ZM169.078 370.744C169.03 371.679 168.797 372.592 168.391 373.437C167.986 374.282 167.418 375.036 166.72 375.656C166.021 376.279 165.206 376.756 164.32 377.061C163.438 377.365 162.499 377.489 161.567 377.429C160.632 377.38 159.716 377.147 158.871 376.741C158.03 376.34 157.275 375.769 156.651 375.07C156.032 374.372 155.555 373.557 155.251 372.67C154.946 371.788 154.819 370.849 154.883 369.918C154.988 368.119 155.776 366.425 157.091 365.189C158.402 363.954 160.14 363.267 161.943 363.27H162.318C163.25 363.323 164.159 363.56 165 363.965C165.837 364.375 166.589 364.942 167.208 365.64C167.824 366.339 168.297 367.154 168.601 368.036C168.902 368.919 169.026 369.85 168.966 370.781L169.078 370.744ZM121.346 323.537C119.562 323.368 117.913 322.527 116.727 321.19C115.54 319.85 114.905 318.111 114.954 316.319C115.003 314.532 115.728 312.827 116.982 311.554C118.24 310.277 119.934 309.529 121.721 309.454H122.097C123.028 309.503 123.945 309.736 124.79 310.138C125.631 310.543 126.386 311.111 127.009 311.813C127.633 312.511 128.11 313.326 128.414 314.209C128.718 315.095 128.842 316.03 128.782 316.965C128.729 317.897 128.493 318.809 128.083 319.647C127.678 320.484 127.111 321.235 126.412 321.855C125.714 322.471 124.899 322.944 124.016 323.248C123.134 323.549 122.198 323.673 121.271 323.613L121.346 323.537ZM141.663 234.644C143.372 235.402 145.205 235.847 147.071 235.959H147.86C148.881 235.971 149.899 235.87 150.902 235.658L162.168 269.983H161.905L132.838 250.004L141.663 234.644ZM105.648 281.625C104.765 281.388 103.857 281.262 102.944 281.25L87.9219 236.184C89.3866 235.625 90.7536 234.839 91.9779 233.856C92.4286 233.443 92.8416 232.992 93.2547 232.541L122.36 252.633L105.648 281.625ZM102.794 295.108C102.197 295.108 101.618 294.932 101.123 294.601C100.631 294.271 100.244 293.802 100.018 293.253C99.7893 292.704 99.7293 292.1 99.8457 291.517C99.9621 290.935 100.247 290.399 100.668 289.979C101.089 289.559 101.622 289.273 102.208 289.157C102.79 289.041 103.395 289.1 103.943 289.328C104.491 289.555 104.961 289.94 105.291 290.434C105.622 290.928 105.798 291.509 105.798 292.103C105.798 292.9 105.479 293.664 104.916 294.228C104.352 294.791 103.59 295.108 102.794 295.108ZM76.7666 227.509C76.115 226.814 75.6148 225.991 75.2978 225.093C74.9812 224.194 74.8547 223.239 74.9264 222.289C75.0361 220.42 75.8713 218.668 77.2548 217.407C78.5595 216.19 80.2795 215.518 82.0634 215.529H82.4389C84.3054 215.639 86.0592 216.474 87.3211 217.857C87.9445 218.56 88.4214 219.381 88.7256 220.271C89.0298 221.161 89.15 222.102 89.0861 223.04C89.0523 223.965 88.827 224.871 88.4252 225.705C88.0271 226.539 87.4563 227.281 86.7577 227.885C86.078 228.512 85.2781 228.996 84.4068 229.306C83.5355 229.616 82.6079 229.745 81.6878 229.687C80.764 229.636 79.8626 229.404 79.0327 229.005C78.2012 228.606 77.4568 228.046 76.8417 227.359L76.7666 227.509ZM84.9926 158.408C85.0678 156.598 85.8414 154.888 87.1521 153.636C88.459 152.383 90.2015 151.684 92.0155 151.686H92.391C93.3186 151.719 94.2312 151.943 95.0724 152.344C95.9137 152.744 96.661 153.313 97.2731 154.014C98.1895 155.055 98.7754 156.343 98.9669 157.716C99.1547 159.09 98.9368 160.489 98.336 161.738C97.7351 162.988 96.7774 164.033 95.5869 164.743C94.3964 165.453 93.0219 165.797 91.6399 165.731C90.7085 165.698 89.7959 165.474 88.9547 165.074C88.1172 164.673 87.3661 164.105 86.7577 163.403C85.5184 162.013 84.8837 160.19 84.9926 158.333V158.408ZM119.994 123.782H120.82C124.482 123.787 128.023 122.451 130.772 120.027C131.358 119.489 131.91 118.912 132.425 118.299L158.713 126.637L160.403 139.931C158.946 140.562 157.602 141.425 156.422 142.485C153.902 144.77 152.235 147.842 151.69 151.198H104.972C104.446 150.351 103.857 149.547 103.207 148.794L102.944 148.531L117.29 123.407C118.188 123.639 119.104 123.777 120.032 123.82L119.994 123.782ZM113.797 108.535C113.884 106.732 114.661 105.031 115.968 103.787C117.275 102.542 119.014 101.849 120.82 101.85H121.196C123.066 101.952 124.82 102.789 126.078 104.179C127.313 105.585 127.959 107.415 127.881 109.286C127.693 111.089 126.821 112.75 125.443 113.927C124.065 115.104 122.289 115.706 120.482 115.61C118.672 115.513 116.967 114.725 115.724 113.408C114.481 112.092 113.79 110.347 113.797 108.535ZM155.108 63.4694C155.495 63.4645 155.882 63.5367 156.246 63.6809C156.606 63.8255 156.937 64.0399 157.215 64.3118C157.493 64.5841 157.718 64.9082 157.872 65.2664C158.026 65.6243 158.105 66.0093 158.112 66.3987C158.112 67.1956 157.793 67.9599 157.23 68.5232C156.666 69.0869 155.904 69.4031 155.108 69.4031C154.308 69.4031 153.546 69.0869 152.982 68.5232C152.419 67.9599 152.104 67.1956 152.104 66.3987C152.104 65.6119 152.415 64.8575 152.971 64.3009C153.527 63.7447 154.282 63.4319 155.07 63.4319L155.108 63.4694ZM132.012 99.2967L151.615 76.7638H151.878L157.324 118.074L135.392 111.089C135.429 110.652 135.429 110.212 135.392 109.775C135.621 105.974 134.37 102.232 131.899 99.3343L132.012 99.2967ZM186.729 94.1517C186.647 95.5397 186.155 96.8718 185.317 97.9819C184.48 99.0917 183.334 99.9299 182.024 100.391C180.709 100.852 179.293 100.916 177.945 100.575C176.597 100.233 175.38 99.501 174.449 98.4705C173.818 97.7915 173.337 96.992 173.025 96.1207C172.718 95.2491 172.586 94.3237 172.646 93.4006C172.672 92.4734 172.886 91.5608 173.266 90.7155C173.649 89.8701 174.193 89.1081 174.869 88.4734C175.549 87.8384 176.342 87.3434 177.209 87.0159C178.08 86.6888 179.004 86.5356 179.932 86.5657H180.42C181.351 86.6137 182.268 86.8466 183.113 87.2514C183.954 87.6559 184.709 88.2241 185.332 88.923C185.956 89.6219 186.433 90.4376 186.737 91.322C187.041 92.2068 187.165 93.1434 187.105 94.0766L186.729 94.1517ZM192.963 55.9964L182.748 78.9796C182.14 78.8677 181.524 78.7926 180.908 78.7542C176.935 78.5289 173.033 79.8888 170.062 82.5364C167.092 85.184 165.293 88.9023 165.06 92.8749C164.936 94.8311 165.206 96.7915 165.852 98.6418C166.498 100.492 167.505 102.196 168.816 103.653C171.467 106.605 175.181 108.387 179.143 108.61H180.082C182.054 108.61 184.007 108.222 185.828 107.467C187.653 106.712 189.309 105.606 190.703 104.211C192.1 102.816 193.204 101.16 193.959 99.3373C194.713 97.5148 195.104 95.5612 195.104 93.5884C195.059 89.967 193.73 86.4789 191.349 83.749C190.935 83.274 190.481 82.8342 189.997 82.4346L200.625 58.5126H201.376C203.385 58.5573 205.383 58.1731 207.234 57.3859L223.721 86.5281C222.44 88.3307 221.577 90.3925 221.19 92.5673C220.799 94.7417 220.893 96.9755 221.468 99.109L191.762 122.28C190.56 121.826 189.287 121.609 188.006 121.642C186.433 121.637 184.878 121.969 183.447 122.617C182.016 123.265 180.739 124.213 179.706 125.397L165.436 120.891L159.915 76.1254C161.74 75.259 163.287 73.8995 164.38 72.2009C165.477 70.5027 166.074 68.5322 166.112 66.5114L189.245 52.5789C190.301 53.8959 191.57 55.026 193.001 55.9213L192.963 55.9964ZM201.263 36.4303C202.656 36.4303 204.023 36.8442 205.184 37.6201C206.344 38.3959 207.249 39.4985 207.786 40.7886C208.32 42.0786 208.459 43.4981 208.188 44.8678C207.914 46.2374 207.242 47.4955 206.254 48.4828C205.266 49.4701 204.008 50.1427 202.638 50.415C201.271 50.6876 199.851 50.5476 198.559 50.0135C197.271 49.4791 196.167 48.5741 195.389 47.4129C194.616 46.252 194.203 44.8869 194.203 43.4906C194.203 41.6181 194.946 39.8223 196.268 38.4981C197.594 37.1739 199.389 36.4303 201.263 36.4303ZM237.917 40.8993C239.1 43.2537 241.105 45.0957 243.55 46.0819L235.663 79.8809C233.699 79.9214 231.765 80.3289 229.955 81.0826L213.506 51.7902C215.189 49.3075 216.09 46.3778 216.097 43.378L237.917 40.8993ZM247.306 32.9377C247.899 32.9377 248.481 33.1139 248.973 33.444C249.469 33.7741 249.852 34.2431 250.081 34.7922C250.306 35.3412 250.366 35.9451 250.25 36.528C250.133 37.1108 249.848 37.6463 249.427 38.0662C249.007 38.4865 248.474 38.7726 247.891 38.8887C247.309 39.0047 246.705 38.945 246.153 38.7178C245.604 38.4902 245.135 38.1053 244.804 37.611C244.478 37.1172 244.301 36.5362 244.301 35.9421C244.301 35.1452 244.617 34.381 245.18 33.8176C245.743 33.2539 246.506 32.9377 247.306 32.9377ZM300.934 43.04L325.908 46.7955C325.871 47.5082 325.871 48.2229 325.908 48.9361C325.92 51.7103 326.697 54.427 328.162 56.785L308.145 89.2696C306.579 88.4122 304.874 87.8399 303.112 87.5796L295.151 51.1518C297.96 49.202 300.007 46.3339 300.934 43.04ZM279.528 39.0216C279.543 37.6283 279.967 36.2707 280.752 35.1197C281.537 33.9686 282.645 33.0752 283.937 32.5524C285.229 32.0296 286.645 31.9005 288.012 32.1814C289.375 32.4619 290.625 33.1405 291.606 34.1308C292.586 35.1212 293.25 36.3792 293.517 37.7466C293.784 39.114 293.637 40.5298 293.104 41.8153C292.567 43.1012 291.662 44.1997 290.501 44.9722C289.341 45.7447 287.981 46.1566 286.588 46.157C285.653 46.157 284.729 45.9719 283.869 45.6125C283.005 45.2527 282.224 44.7262 281.567 44.0626C280.91 43.399 280.392 42.6118 280.042 41.7462C279.693 40.8809 279.517 39.9548 279.528 39.0216ZM340.705 42.1011C342.106 42.0936 343.477 42.5033 344.645 43.2781C345.812 44.0525 346.721 45.1569 347.262 46.4507C347.799 47.7448 347.938 49.1693 347.664 50.5434C347.39 51.9176 346.714 53.1786 345.719 54.1671C344.727 55.1552 343.462 55.8251 342.087 56.0922C340.709 56.3592 339.285 56.2108 337.997 55.6659C336.705 55.121 335.605 54.2047 334.835 53.0329C334.069 51.8612 333.667 50.4871 333.682 49.0863C333.682 47.2202 334.418 45.43 335.736 44.1069C337.051 42.7838 338.839 42.0358 340.705 42.026V42.1011ZM365.792 81.0075L349.268 120.665L349.718 61.1039C350.206 60.7283 350.657 60.3152 351.108 59.9021L364.74 73.7219V75.4119C364.74 77.37 365.123 79.3093 365.867 81.1202L365.792 81.0075ZM379.65 68.3516C381.043 68.3444 382.414 68.7511 383.578 69.5206C384.742 70.2905 385.655 71.3882 386.195 72.6756C386.736 73.9626 386.883 75.3814 386.616 76.7526C386.353 78.1233 385.688 79.3852 384.705 80.3777C383.724 81.3703 382.466 82.0493 381.099 82.3291C379.732 82.6089 378.313 82.4767 377.017 81.949C375.725 81.4218 374.617 80.5227 373.836 79.3656C373.055 78.2089 372.634 76.8461 372.627 75.4494C372.634 73.5867 373.378 71.8021 374.692 70.4813C376.003 69.1605 377.787 68.409 379.65 68.3891V68.3516ZM380.1 106.62C376.889 107.449 374.043 109.317 372.003 111.932C369.968 114.547 368.853 117.763 368.834 121.079C368.796 121.767 368.796 122.456 368.834 123.144L353.098 131.594L371.613 87.8425C374.02 89.3977 376.822 90.2314 379.687 90.246H380.739L380.1 106.62ZM390.954 121.079C390.976 122.48 390.578 123.856 389.816 125.032C389.057 126.207 387.961 127.13 386.672 127.681C385.384 128.233 383.961 128.389 382.586 128.129C381.208 127.87 379.939 127.206 378.94 126.224C377.941 125.241 377.257 123.983 376.976 122.611C376.694 121.238 376.829 119.813 377.359 118.516C377.888 117.219 378.793 116.11 379.958 115.329C381.122 114.549 382.493 114.131 383.893 114.131C385.764 114.131 387.559 114.875 388.884 116.199C390.21 117.523 390.954 119.319 390.954 121.191V121.079ZM343.109 144.475C342.511 144.475 341.933 144.299 341.437 143.969C340.945 143.639 340.559 143.17 340.333 142.621C340.104 142.072 340.044 141.468 340.16 140.885C340.277 140.302 340.562 139.767 340.983 139.347C341.404 138.926 341.937 138.64 342.523 138.524C343.105 138.408 343.709 138.468 344.258 138.695C344.806 138.923 345.275 139.308 345.606 139.802C345.936 140.296 346.113 140.877 346.113 141.471C346.117 141.861 346.045 142.247 345.899 142.609C345.756 142.971 345.542 143.301 345.268 143.58C344.998 143.859 344.675 144.082 344.314 144.235C343.957 144.389 343.57 144.47 343.184 144.475H343.109ZM334.058 62.3803C336.165 63.439 338.493 63.9918 340.855 63.9952H341.944L341.456 130.542C340.45 130.688 339.473 130.993 338.564 131.444L312.764 111.727C314.619 109.362 315.72 106.493 315.93 103.494C316.136 100.495 315.438 97.502 313.928 94.9028L334.058 62.3803ZM293.911 102.414C293.911 101.017 294.325 99.6524 295.098 98.4916C295.876 97.3304 296.98 96.4253 298.268 95.8913C299.56 95.3569 300.979 95.2168 302.346 95.4894C303.717 95.7617 304.975 96.4343 305.963 97.4216C306.951 98.4089 307.623 99.667 307.897 101.037C308.167 102.406 308.028 103.826 307.495 105.116C306.958 106.406 306.053 107.508 304.893 108.284C303.732 109.06 302.365 109.474 300.972 109.474C300.044 109.474 299.124 109.292 298.268 108.937C297.412 108.582 296.634 108.062 295.977 107.406C295.323 106.751 294.801 105.972 294.448 105.116C294.092 104.259 293.911 103.341 293.911 102.414ZM250.798 94.4897C250.704 91.9454 249.964 89.4664 248.654 87.2852C247.339 85.1044 245.492 83.2931 243.287 82.0215L251.7 46.0819L252.751 45.5561L289.705 92.6495L288.954 93.5884L250.798 94.4897ZM235.776 102.001C234.383 101.986 233.027 101.56 231.878 100.777C230.725 99.9941 229.835 98.8885 229.309 97.5993C228.787 96.3104 228.656 94.8949 228.934 93.5313C229.208 92.1677 229.884 90.9167 230.871 89.9354C231.859 88.9541 233.114 88.286 234.477 88.0153C235.844 87.7449 237.256 87.8834 238.544 88.4145C239.828 88.9451 240.929 89.8442 241.706 90.9986C242.484 92.1531 242.904 93.5114 242.912 94.9028C242.915 95.8398 242.735 96.7682 242.378 97.6338C242.018 98.4998 241.492 99.2859 240.831 99.9464C240.166 100.607 239.378 101.129 238.51 101.482C237.639 101.834 236.711 102.011 235.776 102.001ZM188.081 135.274C187.281 135.274 186.519 134.958 185.956 134.394C185.392 133.831 185.077 133.067 185.077 132.27C185.107 131.453 185.46 130.682 186.057 130.126C186.654 129.569 187.45 129.273 188.269 129.303C189.084 129.333 189.858 129.686 190.413 130.285C190.969 130.883 191.266 131.679 191.236 132.495C191.236 133.292 190.917 134.056 190.353 134.62C189.79 135.183 189.028 135.5 188.232 135.5L188.081 135.274ZM171.707 149.207C172.379 149.887 172.905 150.697 173.255 151.587C173.604 152.477 173.769 153.43 173.735 154.386C173.705 155.342 173.476 156.281 173.067 157.146C172.661 158.011 172.079 158.783 171.362 159.416C170.644 160.049 169.807 160.528 168.898 160.825C167.989 161.122 167.028 161.23 166.074 161.143C165.124 161.056 164.2 160.775 163.359 160.317C162.518 159.86 161.781 159.236 161.192 158.483C160.583 157.815 160.114 157.032 159.814 156.181C159.509 155.33 159.378 154.428 159.427 153.526C159.502 151.697 160.294 149.97 161.627 148.714C162.961 147.458 164.73 146.773 166.562 146.804H166.938C167.865 146.837 168.778 147.061 169.619 147.462C170.46 147.862 171.208 148.43 171.82 149.132L171.707 149.207ZM117.478 191.306C118.071 191.306 118.653 191.483 119.145 191.813C119.641 192.143 120.024 192.612 120.253 193.161C120.478 193.71 120.538 194.314 120.422 194.897C120.306 195.48 120.02 196.015 119.6 196.435C119.179 196.855 118.646 197.141 118.064 197.257C117.482 197.373 116.877 197.314 116.325 197.087C115.777 196.859 115.307 196.474 114.977 195.98C114.65 195.486 114.473 194.905 114.473 194.31C114.473 193.514 114.789 192.75 115.352 192.186C115.915 191.623 116.678 191.306 117.478 191.306ZM152.479 159.197C153.73 162.365 156.021 165.013 158.976 166.708L146.733 206.065C143.77 206.328 140.95 207.451 138.621 209.295L127.355 199.08C128.061 197.589 128.433 195.961 128.444 194.31C128.444 191.422 127.295 188.652 125.252 186.609C123.209 184.567 120.441 183.42 117.553 183.42C116.637 183.432 115.731 183.558 114.849 183.795L103.845 167.872C105.682 165.478 106.756 162.586 106.925 159.572V159.197H152.479ZM93.1045 212.675C91.407 210.794 89.2627 209.373 86.8704 208.544L92.3534 173.768C94.111 173.716 95.8423 173.333 97.4609 172.641L108.352 188.414C107.09 190.343 106.474 192.622 106.594 194.923C106.714 197.224 107.563 199.426 109.02 201.212C110.478 202.998 112.46 204.275 114.691 204.857C116.922 205.439 119.277 205.297 121.421 204.45L133.964 215.717C133.127 217.962 132.842 220.374 133.131 222.752C133.42 225.13 134.269 227.405 135.617 229.387L126.228 245.573L96.7098 225.256V223.453C96.83 221.497 96.5596 219.537 95.9136 217.686C95.2715 215.836 94.265 214.132 92.9543 212.675H93.1045ZM154.845 221.35C154.657 223.152 153.786 224.814 152.408 225.991C151.029 227.168 149.253 227.77 147.447 227.673C145.637 227.577 143.932 226.789 142.688 225.472C141.445 224.155 140.754 222.411 140.762 220.599C140.871 218.73 141.705 216.978 143.09 215.717C144.375 214.554 146.05 213.911 147.785 213.914H148.16C150.038 214.031 151.796 214.885 153.05 216.292C154.301 217.699 154.946 219.544 154.845 221.425V221.35ZM173.885 278.659C174.513 279.338 174.997 280.138 175.305 281.009C175.617 281.88 175.744 282.806 175.688 283.729C175.59 285.093 175.102 286.399 174.272 287.489C173.446 288.577 172.319 289.401 171.031 289.859C169.743 290.316 168.346 290.387 167.02 290.064C165.691 289.74 164.485 289.036 163.55 288.037C162.619 287.038 161.996 285.788 161.763 284.441C161.526 283.094 161.691 281.707 162.236 280.452C162.777 279.197 163.674 278.128 164.82 277.376C165.961 276.624 167.298 276.221 168.665 276.218H169.041C169.961 276.269 170.862 276.501 171.692 276.9C172.526 277.3 173.27 277.859 173.885 278.546V278.659ZM231.983 340.362L202.803 352.38L183.011 298.337L232.284 336.757C232.163 337.527 232.1 338.304 232.096 339.085V340.362H231.983ZM247.118 332.025C248.504 332.077 249.844 332.536 250.971 333.347C252.101 334.154 252.965 335.281 253.457 336.576C253.949 337.876 254.047 339.292 253.739 340.644C253.431 341.999 252.732 343.231 251.726 344.189C250.723 345.146 249.457 345.789 248.09 346.029C246.723 346.273 245.315 346.108 244.042 345.556C242.769 345.004 241.687 344.087 240.932 342.923C240.174 341.759 239.78 340.4 239.795 339.01C239.795 338.075 239.979 337.151 240.339 336.291C240.696 335.427 241.225 334.646 241.886 333.989C242.551 333.335 243.34 332.817 244.204 332.464C245.067 332.115 245.995 331.938 246.93 331.95L247.118 332.025ZM261.501 342.315L289.33 336.719C290.118 338.931 291.403 340.937 293.085 342.578L277.087 394.028H275.697L257.295 349.563C259.368 347.505 260.814 344.899 261.464 342.052L261.501 342.315ZM303.338 324.439C302.545 323.35 301.359 322.61 300.029 322.385C298.703 322.163 297.34 322.467 296.232 323.237C295.128 324.003 294.37 325.175 294.118 326.501C293.866 327.822 294.144 329.193 294.892 330.312C295.639 331.435 296.796 332.216 298.114 332.494C299.432 332.772 300.807 332.521 301.941 331.796C303.075 331.071 303.882 329.929 304.183 328.619C304.487 327.304 304.265 325.926 303.563 324.777L303.338 324.439ZM349.08 283.466C350.469 283.466 351.829 283.877 352.989 284.648C354.146 285.419 355.051 286.515 355.588 287.799C356.129 289.082 356.275 290.496 356.009 291.863C355.746 293.229 355.085 294.487 354.108 295.479C353.132 296.471 351.885 297.152 350.522 297.437C349.162 297.722 347.747 297.598 346.455 297.081C345.163 296.564 344.051 295.676 343.262 294.53C342.474 293.384 342.042 292.03 342.019 290.639C342.019 288.776 342.759 286.99 344.074 285.673C345.392 284.356 347.179 283.616 349.042 283.616L349.08 283.466ZM380.175 268.106C380.562 268.101 380.949 268.173 381.313 268.317C381.674 268.462 382.004 268.676 382.282 268.948C382.56 269.22 382.785 269.544 382.939 269.903C383.093 270.261 383.172 270.646 383.18 271.035C383.18 271.832 382.861 272.596 382.297 273.159C381.734 273.723 380.972 274.039 380.175 274.039C379.375 274.039 378.613 273.723 378.05 273.159C377.486 272.596 377.171 271.832 377.171 271.035C377.171 270.248 377.483 269.494 378.039 268.937C378.594 268.381 379.349 268.068 380.138 268.068L380.175 268.106ZM411.872 290.601C411.879 291.998 411.47 293.365 410.7 294.53C409.93 295.695 408.834 296.606 407.545 297.147C406.261 297.688 404.842 297.836 403.471 297.571C402.1 297.305 400.838 296.64 399.843 295.657C398.852 294.675 398.172 293.421 397.894 292.053C397.612 290.685 397.747 289.264 398.273 287.971C398.799 286.679 399.7 285.571 400.857 284.789C402.014 284.007 403.377 283.586 404.774 283.578C405.705 283.573 406.629 283.752 407.493 284.104C408.353 284.456 409.142 284.975 409.803 285.631C410.464 286.286 410.993 287.066 411.354 287.925C411.714 288.785 411.902 289.707 411.909 290.639L411.872 290.601ZM405.788 337.658C404.391 337.643 403.031 337.215 401.882 336.43C400.729 335.641 399.835 334.533 399.313 333.238C398.791 331.946 398.664 330.526 398.949 329.159C399.235 327.796 399.914 326.546 400.91 325.565C401.905 324.589 403.167 323.924 404.534 323.665C405.904 323.402 407.32 323.552 408.608 324.093C409.893 324.634 410.989 325.547 411.755 326.711C412.525 327.875 412.931 329.242 412.923 330.635C412.916 331.567 412.728 332.487 412.368 333.343C412.003 334.199 411.477 334.977 410.813 335.63C410.152 336.284 409.367 336.798 408.503 337.147C407.639 337.493 406.716 337.669 405.788 337.658ZM379.988 282.039C381.73 282.038 383.45 281.618 385.001 280.814C386.548 280.011 387.882 278.846 388.888 277.419L393.507 280.724C391.224 283.262 389.895 286.515 389.752 289.925L363.726 291.39V290.639C363.719 288.709 363.351 286.798 362.637 285.005L371.538 278.246C372.567 279.436 373.84 280.388 375.274 281.036C376.705 281.685 378.264 282.014 379.837 282.001L379.988 282.039ZM371.613 344.155L357.154 302.844C358.604 301.899 359.877 300.704 360.91 299.314L391.555 297.699C392.561 299.574 393.958 301.213 395.648 302.508C397.338 303.803 399.283 304.724 401.356 305.21L403.422 315.914C399.494 316.56 395.982 318.734 393.658 321.968C391.333 325.201 390.387 329.223 391.029 333.151C391.247 334.443 391.626 335.705 392.155 336.907L380.889 347.948C378.305 345.665 375.019 344.339 371.575 344.193L371.613 344.155ZM397.526 342.765C400.688 345.192 404.684 346.262 408.635 345.74C412.585 345.218 416.168 343.149 418.594 339.986C421.017 336.824 422.087 332.828 421.569 328.878C421.047 324.927 418.977 321.344 415.815 318.918C414.531 318.054 413.126 317.382 411.646 316.928L409.168 304.985C412.612 303.915 415.56 301.641 417.468 298.578C419.372 295.515 420.115 291.868 419.552 288.304C418.992 284.74 417.167 281.496 414.414 279.166C411.658 276.837 408.154 275.577 404.549 275.617C403.275 275.615 402.01 275.804 400.793 276.18L390.691 268.932C390.157 266.367 388.719 264.079 386.639 262.489C384.558 260.897 381.974 260.11 379.36 260.27C376.747 260.429 374.275 261.526 372.405 263.358C370.535 265.191 369.386 267.636 369.172 270.246L357.905 278.659C355.674 277.04 353.042 276.065 350.297 275.842C347.551 275.618 344.795 276.154 342.335 277.391C339.871 278.627 337.798 280.518 336.337 282.854C334.876 285.191 334.088 287.884 334.058 290.639C334.043 294.53 335.571 298.269 338.301 301.041L313.402 320.683C311.431 318.963 309.042 317.792 306.481 317.277C303.916 316.763 301.261 316.928 298.782 317.758C296.3 318.584 294.077 320.045 292.334 321.994C290.592 323.943 289.386 326.313 288.841 328.87L261.163 334.428C260.315 331.923 258.82 329.685 256.83 327.943C254.843 326.2 252.428 325.013 249.833 324.503C247.238 323.992 244.553 324.176 242.052 325.036C239.55 325.892 237.32 327.398 235.588 329.396L183.011 288.085C183.477 286.753 183.755 285.363 183.838 283.954C184.025 280.067 182.696 276.257 180.135 273.329C177.57 270.401 173.968 268.582 170.092 268.256L158.187 231.79C159.615 230.425 160.756 228.792 161.552 226.984C162.345 225.177 162.777 223.23 162.818 221.256C162.859 219.281 162.514 217.318 161.796 215.479C161.079 213.639 160.005 211.959 158.638 210.534C157.448 209.313 156.066 208.297 154.545 207.53L166.637 168.623C170.415 168.544 174.028 167.043 176.751 164.418C179.47 161.794 181.104 158.24 181.321 154.465C181.442 152.509 181.171 150.549 180.525 148.698C179.883 146.848 178.877 145.144 177.566 143.687C175.185 141.058 171.951 139.355 168.44 138.88L166.975 129.153L177.378 132.458C177.603 135.18 178.846 137.718 180.856 139.568C182.865 141.418 185.497 142.445 188.232 142.445C190.962 142.445 193.594 141.418 195.604 139.568C197.617 137.718 198.856 135.18 199.085 132.458C199.089 130.716 198.661 129.001 197.846 127.463L225.524 105.869C228.427 108.59 232.295 110.048 236.272 109.921C240.249 109.794 244.016 108.094 246.742 105.193C247.535 104.349 248.226 103.417 248.808 102.414L286.062 101.4V102.301C286.062 106.285 287.643 110.106 290.46 112.924C293.277 115.74 297.1 117.323 301.084 117.323C302.744 117.311 304.393 117.032 305.967 116.497L333.081 137.19C332.398 138.655 332.049 140.253 332.052 141.869C332.056 143.485 332.42 145.08 333.111 146.541C333.802 148.002 334.809 149.292 336.056 150.321C337.303 151.349 338.76 152.091 340.326 152.492C341.892 152.893 343.525 152.944 345.114 152.642C346.699 152.34 348.201 151.692 349.512 150.744C350.819 149.796 351.904 148.571 352.685 147.157C353.466 145.742 353.928 144.173 354.037 142.56C354.075 142.135 354.075 141.708 354.037 141.283V140.156L372.326 130.355C374.771 133.502 378.365 135.549 382.32 136.046C386.274 136.543 390.266 135.448 393.414 133.002C396.561 130.557 398.607 126.962 399.103 123.007C399.599 119.052 398.506 115.063 396.061 111.915C394.033 109.336 391.228 107.478 388.062 106.62L388.738 88.143H387.461C389.185 87.1767 390.706 85.8795 391.93 84.3259C393.154 82.7722 394.059 80.9925 394.597 79.0885C395.134 77.1845 395.291 75.1933 395.058 73.2284C394.826 71.2639 394.21 69.3644 393.245 67.638C392.276 65.912 390.98 64.3933 389.425 63.1686C387.87 61.9436 386.094 61.037 384.19 60.5C380.344 59.4154 376.225 59.9025 372.739 61.8546C371.004 62.7983 369.472 64.0744 368.233 65.6101L355.352 52.7667C355.652 51.5371 355.802 50.2764 355.802 49.0112C355.738 45.9873 354.762 43.0531 353.001 40.5925C351.243 38.1323 348.783 36.2602 345.94 35.2211C343.101 34.1823 340.014 34.0253 337.081 34.7704C334.152 35.5155 331.512 37.1277 329.514 39.3971L301.009 35.2661C300.303 32.5404 298.85 30.0678 296.807 28.1292C294.768 26.191 292.221 24.8649 289.465 24.3027C286.705 23.7405 283.847 23.9644 281.207 24.9491C278.57 25.9337 276.264 27.6399 274.548 29.8721C272.836 32.1048 271.78 34.7738 271.51 37.5757C271.239 40.3773 271.761 43.1988 273.016 45.7188C274.27 48.2383 276.208 50.3545 278.608 51.8267C281.007 53.2984 283.772 54.0664 286.588 54.0435H287.677L294.7 86.3028L257.821 39.0216C258.234 37.6385 258.369 36.187 258.215 34.7512C258.061 33.3159 257.626 31.9249 256.931 30.6593C256.236 29.394 255.297 28.2794 254.167 27.3804C253.036 26.4813 251.741 25.8158 250.351 25.4222C248.962 25.029 247.508 24.916 246.078 25.0891C244.643 25.2626 243.261 25.7193 242.003 26.4325C240.748 27.146 239.648 28.1014 238.766 29.2442C237.883 30.3866 237.237 31.6932 236.865 33.0879L213.882 35.6417C212.128 32.9524 209.559 30.8955 206.551 29.7722C203.543 28.6493 200.257 28.519 197.17 29.4012C194.083 30.283 191.36 32.1303 189.399 34.6728C187.439 37.2152 186.346 40.3184 186.279 43.5282C186.241 44.0908 186.241 44.6552 186.279 45.2182L163.332 59.0759C161.89 57.3942 159.968 56.1966 157.827 55.646C155.683 55.0951 153.418 55.2179 151.349 55.9971C149.276 56.7768 147.496 58.1753 146.245 60.0027C144.994 61.8302 144.341 63.9978 144.367 66.2109C144.36 68.0504 144.825 69.8609 145.719 71.4686L125.627 94.9028C122.435 93.8888 118.999 93.9696 115.859 95.1323C112.72 96.295 110.057 98.4728 108.299 101.32C106.538 104.168 105.779 107.522 106.144 110.85C106.504 114.177 107.969 117.289 110.305 119.689L96.1089 144.55C95.0424 144.144 93.9345 143.866 92.8041 143.724C88.8308 143.54 84.9476 144.94 82.0033 147.615C79.0627 150.29 77.2995 154.023 77.1046 157.995C76.9836 159.951 77.2537 161.912 77.8985 163.762C78.5444 165.613 79.5509 167.316 80.8616 168.773C81.9432 169.97 83.2125 170.984 84.6171 171.778L78.9463 208.018C75.4754 208.744 72.3745 210.674 70.1903 213.466C68.0061 216.258 66.8798 219.732 67.0102 223.274C67.1405 226.816 68.5195 230.198 70.9027 232.822C73.286 235.446 76.5206 237.142 80.0354 237.611L95.5456 284.179C94.0096 285.569 92.9017 287.368 92.3534 289.364C91.8051 291.36 91.8352 293.472 92.4436 295.451C93.052 297.43 94.2124 299.196 95.786 300.539C97.3595 301.883 99.2861 302.75 101.337 303.038C103.387 303.326 105.479 303.024 107.364 302.166C109.249 301.309 110.849 299.933 111.98 298.198C113.11 296.463 113.722 294.442 113.745 292.371C113.767 290.301 113.196 288.267 112.107 286.508L128.97 257.102L156.084 275.88C154.853 277.944 154.135 280.272 153.993 282.671C153.85 285.069 154.282 287.466 155.258 289.662L131.26 304.947C129.447 303.351 127.276 302.214 124.932 301.635C122.589 301.055 120.137 301.05 117.789 301.619C115.442 302.187 113.268 303.313 111.45 304.902C109.629 306.49 108.22 308.493 107.338 310.742C106.459 312.992 106.132 315.418 106.392 317.822C106.651 320.221 107.481 322.527 108.821 324.536C110.158 326.549 111.961 328.206 114.075 329.373C116.19 330.538 118.556 331.18 120.97 331.236H121.797C123.13 331.24 124.459 331.048 125.74 330.673L150.789 360.416C148.941 362.538 147.728 365.137 147.285 367.912C146.842 370.691 147.188 373.538 148.284 376.129C149.381 378.721 151.18 380.951 153.482 382.57C155.784 384.185 158.495 385.124 161.305 385.278H162.131C165.901 385.293 169.54 383.884 172.323 381.338C175.106 378.792 176.83 375.292 177.153 371.533L198.484 362.782L205.695 382.499C203.588 384.511 202.116 387.095 201.455 389.934C200.794 392.77 200.97 395.74 201.965 398.478C202.961 401.216 204.729 403.604 207.058 405.354C209.386 407.104 212.177 408.141 215.083 408.336H215.872C218.031 408.287 220.157 407.769 222.102 406.823C224.048 405.876 225.764 404.524 227.139 402.853L267.886 409.463C268.791 411.476 270.286 413.166 272.178 414.307C274.067 415.445 276.264 415.982 278.465 415.843C280.669 415.708 282.78 414.897 284.511 413.53C286.246 412.163 287.52 410.297 288.166 408.186L313.478 395.079C315.772 398.335 319.269 400.547 323.193 401.227C327.121 401.907 331.155 400.998 334.415 398.703C337.671 396.409 339.883 392.912 340.562 388.984C341.242 385.06 340.333 381.023 338.039 377.767C337.152 376.505 336.074 375.389 334.846 374.462L331.579 347.159L356.215 358.689V359.102C355.772 363.086 356.929 367.082 359.434 370.214C361.935 373.343 365.581 375.352 369.566 375.795C373.551 376.238 377.547 375.081 380.675 372.577C383.807 370.072 385.816 366.429 386.259 362.444C386.372 361.333 386.372 360.213 386.259 359.102C386.214 357.525 385.921 355.966 385.396 354.483L397.526 342.765Z" fill="#033B6D"></path>
</svg>