<svg width="189" height="64" viewBox="0 0 189 64" fill="none" xmlns="http://www.w3.org/2000/svg">
<path d="M27.6809 15.4239L26.5459 13.1191C26.4801 12.9874 26.3595 12.8776 26.2169 12.8392C26.0744 12.7898 25.9154 12.7953 25.7783 12.8667C24.6872 13.399 23.6673 13.9532 22.7516 14.5239C22.7242 13.2618 22.6694 12.1588 22.5597 11.2313C22.5433 11.0832 22.4665 10.9405 22.3404 10.8472C22.2252 10.7539 22.0607 10.7155 21.9127 10.732L19.4014 11.0832C19.2479 11.1106 19.1163 11.182 19.0231 11.3082C18.9299 11.4344 18.897 11.5826 18.9134 11.7307C19.0121 12.3673 19.2479 13.4319 19.6208 14.9684C18.7654 14.7105 17.6743 14.4526 16.3199 14.1892C16.1664 14.1562 16.0184 14.1892 15.8922 14.2715C15.7661 14.3538 15.6839 14.4855 15.6565 14.6392L15.2123 17.1635C15.1849 17.3116 15.2233 17.4708 15.311 17.597C15.4042 17.7232 15.5468 17.8055 15.6948 17.822C16.7805 17.9537 17.9045 18.0524 19.0395 18.1293C18.5625 18.8207 17.9539 19.7646 17.2356 20.9609C17.1588 21.0926 17.1369 21.2517 17.1753 21.3999C17.2192 21.5481 17.3178 21.6743 17.4549 21.7511L19.692 22.92C19.7743 22.9639 19.8675 22.9858 19.9607 22.9858C20.1636 22.9858 20.3555 22.8761 20.4542 22.695C20.8928 21.9212 21.3589 20.8786 21.8634 19.5725C22.7297 20.6371 23.5028 21.5042 24.1553 22.1682C24.3746 22.3822 24.7255 22.3931 24.9558 22.1846L26.8146 20.4505C26.9298 20.3408 26.9901 20.1926 26.9901 20.0444C26.9901 19.8853 26.9243 19.7481 26.8036 19.6384C25.7947 18.711 24.9558 17.9976 24.2759 17.4543C25.3068 17.125 26.3595 16.697 27.4068 16.1921C27.6919 16.044 27.8125 15.7092 27.6755 15.4349L27.6809 15.4239Z" fill="#292E52"/>
<path d="M44.2239 9.87052C39.64 4.05914 32.002 -0.336435 23.9199 0.0202594C8.04079 0.728161 -1.1873 13.2564 0.123168 25.7517C1.38977 37.8957 11.8241 45.1174 18.9412 42.5163C22.8068 41.106 24.1228 37.6762 23.6128 34.3068C23.3771 32.7703 23.1248 31.7112 23.8157 31.574C24.6656 31.4094 24.9727 33.149 25.2523 34.1203C25.8335 36.1726 26.3709 39.3335 29.0411 38.5872C30.8067 37.9671 30.6532 36.4854 30.4284 34.8117C30.2419 33.4398 29.9733 31.9911 29.8965 31.5356C29.5127 29.2198 26.9301 25.7352 22.7794 26.5364C18.9412 27.2827 17.7295 30.5808 18.2284 33.6977C18.371 34.5922 18.8151 36.661 17.724 37.3689C16.8576 37.9232 16.101 37.8573 15.4211 37.7695C9.09355 36.9135 4.08746 28.8631 5.59532 20.0391C6.84547 12.6747 14.0393 5.10727 24.5395 5.36519C36.1747 5.64506 44.4322 15.5228 43.5166 25.8504C42.9518 32.2161 39.9635 37.9451 31.7882 42.0114C29.3262 43.2297 24.8411 44.7168 19.6102 45.6827C17.1318 46.1381 13.3594 48.3222 14.0174 52.7123C14.5712 56.4219 18.0255 57.9255 21.5786 57.5085C22.6204 57.3822 27.3578 56.6634 28.2296 56.5701C29.1014 56.4768 29.4798 56.6853 29.5894 57.0201C29.6991 57.3438 29.4743 57.7773 28.8602 57.9804C28.2132 58.1944 25.3565 58.82 24.0405 59.2151C22.9329 59.5553 22.2421 60.5705 22.3956 61.6955C22.3956 61.7229 22.412 61.7449 22.412 61.7723C22.6149 62.9741 23.739 63.8137 24.9727 63.6491C25.9651 63.5174 27.7965 63.2265 28.8273 63.0509C30.9767 62.6833 32.8683 62.0357 34.0582 59.9395C34.6394 58.9188 35.0561 57.3329 34.6394 55.7085C34.2611 54.2543 33.3728 52.855 31.2399 51.8891C29.392 51.0605 27.5771 51.4227 25.3784 51.7135C23.1687 52.0044 21.5293 52.2678 21.0413 52.3446C20.2407 52.4599 19.3689 52.5092 19.2263 51.8452C19.0838 51.1812 19.8569 50.9508 20.6465 50.7971C21.1235 50.7038 23.7993 50.1825 24.6382 49.9904C27.8732 49.2331 31.0534 48.174 34.1404 46.7198C41.9758 43.0431 48.2595 36.244 48.8736 26.251C49.1313 22.0201 48.4349 15.177 44.2348 9.86503L44.2239 9.87052Z" fill="#EF5A93"/>
<path d="M74.0298 30.5849H63.1677V39.1456H76.0805V43.7552H57.3008V13.7874H76.0421V18.4189H63.1732V25.9534H74.0353V30.5849H74.0298Z" fill="#292E52"/>
<path d="M77.7554 32.8074C77.7554 29.2953 78.4956 26.4637 79.976 24.3071C80.6669 23.2699 81.6045 22.4249 82.7011 21.8596C83.7978 21.2944 85.015 21.0255 86.2432 21.0749C87.2631 21.0584 88.2775 21.3054 89.1767 21.7938C90.0759 22.2986 90.86 23.0011 91.4686 23.8516V13.7874H97.363V43.7552H92.3569L91.8525 41.0169C91.2329 41.9882 90.3994 42.7949 89.418 43.3766C88.431 43.9308 87.3234 44.2107 86.1994 44.1887C84.9986 44.2436 83.8087 44.0021 82.7231 43.4753C81.6374 42.954 80.6943 42.1638 79.976 41.1815C78.4956 39.1785 77.7554 36.528 77.7554 33.2354V32.8019V32.8074ZM83.6059 33.2409C83.5291 34.8378 83.8581 36.4238 84.5709 37.8396C84.8889 38.3883 85.3495 38.8383 85.9033 39.1346C86.4571 39.431 87.0822 39.5627 87.7072 39.5188C88.4749 39.5352 89.237 39.3541 89.9169 38.9919C90.5584 38.6298 91.0903 38.103 91.4632 37.4554V27.9728C91.0903 27.3033 90.5639 26.7436 89.9279 26.3375C89.2699 25.9369 88.5132 25.7339 87.7456 25.7503C87.0931 25.7229 86.4406 25.893 85.8813 26.2387C85.3221 26.5845 84.8725 27.0948 84.5983 27.7039C83.8745 29.3008 83.5346 31.0514 83.6059 32.8074V33.2409V33.2409Z" fill="#292E52"/>
<path d="M108.193 39.151H118.518V43.7606H102.321V13.7927H108.193V39.151V39.151Z" fill="#292E52"/>
<path d="M127.724 18.6054H121.852V14.1001H127.724V18.6054ZM127.724 43.7606H121.852V21.4919H127.724V43.7606Z" fill="#292E52"/>
<path d="M131.26 32.8127C131.26 29.3007 132.005 26.4636 133.491 24.3124C134.182 23.2753 135.12 22.4302 136.222 21.8649C137.319 21.2997 138.541 21.0308 139.77 21.0802C140.899 21.0583 142.012 21.3491 142.988 21.9253C143.953 22.529 144.765 23.3521 145.362 24.3344L145.823 21.4918H150.867V43.6562C150.867 46.5537 149.941 48.7926 148.093 50.3786C146.245 51.9645 143.663 52.7547 140.351 52.7547C139.172 52.7437 137.993 52.5901 136.853 52.2937C135.668 52.0029 134.522 51.5804 133.437 51.0316L134.424 46.5482C135.312 46.9872 136.249 47.322 137.209 47.547C138.229 47.7829 139.271 47.8927 140.318 47.8872C141.924 47.8872 143.109 47.547 143.865 46.8555C144.271 46.4385 144.584 45.9336 144.776 45.3794C144.973 44.8251 145.05 44.2324 145 43.6453V41.6258C144.392 42.4325 143.619 43.0855 142.73 43.5355C141.793 43.991 140.767 44.216 139.737 44.194C138.536 44.2489 137.341 44.0075 136.255 43.4806C135.169 42.9538 134.221 42.1691 133.502 41.1868C132.016 39.1838 131.271 36.5333 131.271 33.2408V32.8127H131.26ZM137.132 33.2408C137.055 34.8322 137.384 36.4181 138.086 37.8394C138.404 38.3936 138.865 38.8381 139.413 39.1345C139.967 39.4308 140.587 39.5625 141.212 39.5131C142.001 39.5405 142.785 39.3649 143.493 39.0082C144.118 38.6735 144.639 38.1632 144.989 37.5376V27.8849C144.639 27.2263 144.123 26.6831 143.493 26.3044C142.807 25.9203 142.034 25.7282 141.25 25.7502C140.598 25.7227 139.95 25.8929 139.391 26.2386C138.832 26.5898 138.388 27.1001 138.114 27.7038C137.395 29.3007 137.061 31.0512 137.127 32.8072V33.2353L137.132 33.2408Z" fill="#292E52"/>
<path d="M160.678 24.307C161.325 23.3247 162.186 22.5125 163.189 21.9308C164.588 21.179 166.189 20.9102 167.746 21.1736C169.303 21.437 170.74 22.2162 171.825 23.3906C173.119 24.9326 173.766 27.3197 173.766 30.5464V43.7606H167.894V30.508C167.894 28.7794 167.62 27.5556 167.077 26.8313C166.786 26.4636 166.408 26.1728 165.986 25.9862C165.558 25.7996 165.097 25.7173 164.637 25.7502C163.836 25.7338 163.036 25.8819 162.296 26.1947C161.66 26.4691 161.1 26.9026 160.678 27.4624V43.7606H154.806V13.7927H160.678V24.3125V24.307Z" fill="#292E52"/>
<path d="M184.468 13.7927V21.4918H188.148V25.7118H184.468V37.0547C184.403 37.7187 184.595 38.3827 185 38.9095C185.181 39.0961 185.401 39.2388 185.642 39.3375C185.883 39.4308 186.135 39.4747 186.399 39.4638C186.667 39.4638 186.936 39.4528 187.205 39.4144C187.468 39.3705 187.731 39.3101 187.989 39.2388L188.471 43.5795C187.912 43.777 187.336 43.9307 186.755 44.0404C186.152 44.1502 185.543 44.1996 184.935 44.1941C182.911 44.1941 181.354 43.6234 180.263 42.4874C179.172 41.346 178.623 39.5461 178.623 37.0767V25.7173H175.449V21.4973H178.623V13.7982H184.474L184.468 13.7927Z" fill="#292E52"/>
</svg>
