<svg width="203" height="40" viewBox="0 0 203 40" fill="none"
  xmlns="http://www.w3.org/2000/svg">
  <path fill-rule="evenodd" clip-rule="evenodd" d="M58.8881 13.5441V27.7281C58.8881 28.5201 58.2161 29.1921 57.4241 29.1921C56.6321 29.1921 55.9601 28.5201 55.9601 27.7281V21.8241H48.2801V27.7281C48.2801 28.5201 47.6081 29.1921 46.8161 29.1921C45.9761 29.1921 45.3281 28.5681 45.3281 27.7281V13.5441C45.3281 12.7041 45.9761 12.0801 46.8161 12.0801C47.6081 12.0801 48.2801 12.7041 48.2801 13.5441V19.0641H55.9601V13.5441C55.9601 12.7041 56.6321 12.0801 57.4241 12.0801C58.2161 12.0801 58.8881 12.7041 58.8881 13.5441ZM61.3061 25.8321C61.3061 23.5521 62.9381 22.3281 65.2421 22.3281C66.2261 22.3281 67.0421 22.5681 67.6901 23.0241V22.6881C67.6901 21.0321 67.1381 20.2401 65.6741 20.2401C65.0741 20.2401 64.4981 20.3121 63.9941 20.4801C63.7301 20.5521 63.5621 20.5761 63.4421 20.5761C63.0101 20.5761 62.6981 20.3841 62.5061 20.0001C62.4341 19.8561 62.4101 19.7121 62.4101 19.5441C62.4101 19.0881 62.6741 18.7281 63.2021 18.5121C64.0901 18.1281 65.0021 17.9361 65.9621 17.9361C69.0341 17.9361 70.2821 19.4481 70.2821 22.4241V27.9201C70.2821 28.5681 69.7541 29.1441 69.0581 29.1441C68.3621 29.1441 67.8821 28.6161 67.8821 27.8481C67.1861 28.7121 66.1301 29.1441 64.6901 29.1441C62.6741 29.1441 61.3061 27.8721 61.3061 25.8321ZM67.6901 25.8321V24.7281C67.2341 24.3681 66.5861 24.2001 65.7941 24.2001C64.8101 24.2001 64.0661 24.6801 64.0661 25.5441C64.0661 26.3361 64.7141 26.8161 65.6021 26.8161C66.5381 26.8161 67.2341 26.4801 67.6901 25.8321ZM75.1241 21.7041V26.0721C75.7721 26.4801 76.5161 26.6961 77.4041 26.6961C79.2521 26.6961 80.4281 25.3521 80.4281 23.5041C80.4281 21.7521 79.3961 20.5281 77.5961 20.5281C76.6601 20.5281 75.8201 20.9121 75.1241 21.7041ZM72.3641 32.4561V19.5921C72.3641 18.6081 72.9161 18.0321 73.7801 18.0321C74.5481 18.0321 75.1241 18.5361 75.1241 19.2081C75.8201 18.4641 77.1161 17.9361 78.4601 17.9361C79.9241 17.9361 81.1241 18.4401 82.0121 19.4721C82.9001 20.5041 83.3561 21.8241 83.3561 23.4321C83.3561 25.1121 82.8281 26.5041 81.7721 27.6081C80.7161 28.7121 79.3481 29.2641 77.6441 29.2641C76.5641 29.2641 75.7241 29.0961 75.1241 28.7361V32.4561C75.1241 33.2001 74.5241 33.8001 73.7561 33.8001C72.9641 33.8001 72.3641 33.2001 72.3641 32.4561ZM87.7661 21.7041V26.0721C88.4141 26.4801 89.1581 26.6961 90.0461 26.6961C91.8941 26.6961 93.0701 25.3521 93.0701 23.5041C93.0701 21.7521 92.0381 20.5281 90.2381 20.5281C89.3021 20.5281 88.4621 20.9121 87.7661 21.7041ZM85.0061 32.4561V19.5921C85.0061 18.6081 85.5581 18.0321 86.4221 18.0321C87.1901 18.0321 87.7661 18.5361 87.7661 19.2081C88.4621 18.4641 89.7581 17.9361 91.1021 17.9361C92.5661 17.9361 93.7661 18.4401 94.6541 19.4721C95.5421 20.5041 95.9981 21.8241 95.9981 23.4321C95.9981 25.1121 95.4701 26.5041 94.4141 27.6081C93.3581 28.7121 91.9901 29.2641 90.2861 29.2641C89.2061 29.2641 88.3661 29.0961 87.7661 28.7361V32.4561C87.7661 33.2001 87.1661 33.8001 86.3981 33.8001C85.6061 33.8001 85.0061 33.2001 85.0061 32.4561ZM99.1841 19.0401L101.344 24.1041C101.44 24.3441 101.608 24.8721 101.872 25.6641C101.992 24.9681 102.136 24.4401 102.256 24.0801L103.912 19.0641C104.128 18.3681 104.608 18.0321 105.304 18.0321C106.192 18.0321 106.744 18.5841 106.744 19.3521C106.744 19.5681 106.696 19.8321 106.6 20.0961L103.096 29.0001C102.352 30.9201 101.68 32.1921 101.08 32.8401C100.48 33.4881 99.7601 33.8001 98.9201 33.8001C98.3681 33.8001 97.8881 33.7041 97.5041 33.5361C97.0001 33.3201 96.7361 32.9121 96.7361 32.3601C96.7361 31.7121 97.1201 31.2081 97.8641 31.2081C98.0561 31.2081 98.4641 31.2561 98.6321 31.2561H98.7761C99.3281 31.2321 99.8321 30.6801 100.264 29.5761L100.504 29.0001L96.4241 20.1921C96.3041 19.9281 96.2561 19.7121 96.2561 19.4961C96.2561 18.7041 96.8561 18.0321 97.8881 18.0321C98.4401 18.0321 98.9201 18.4641 99.1841 19.0401ZM116.14 12.8961L124.828 23.8881V13.4241C124.828 12.6801 125.428 12.0801 126.22 12.0801C126.988 12.0801 127.588 12.6801 127.588 13.4241V27.8481C127.588 28.6161 127.036 29.1921 126.268 29.1921C125.668 29.1921 125.14 28.9041 124.684 28.3041L115.996 17.3601V27.8481C115.996 28.5921 115.396 29.1921 114.628 29.1921C113.836 29.1921 113.236 28.5921 113.236 27.8481V13.4241C113.236 12.6561 113.86 12.0801 114.652 12.0801C115.204 12.0801 115.708 12.3441 116.14 12.8961ZM137.71 25.3761V19.3761C137.71 18.6321 138.31 18.0321 139.102 18.0321C139.87 18.0321 140.47 18.6321 140.47 19.3761V27.8481C140.47 28.5921 139.87 29.1921 139.078 29.1921C138.286 29.1921 137.71 28.6161 137.71 27.6801C136.846 28.7361 135.694 29.2641 134.254 29.2641C132.022 29.2641 130.462 27.7521 130.462 24.8001V19.3761C130.462 18.6321 131.062 18.0321 131.854 18.0321C132.622 18.0321 133.222 18.6321 133.222 19.3761V24.2241C133.222 25.8801 133.918 26.6961 135.286 26.6961C136.222 26.6961 137.038 26.2641 137.71 25.3761ZM145.552 19.3761C146.392 18.4641 147.52 18.0081 148.936 18.0081C150.544 18.0081 151.672 18.7041 152.08 19.7361C152.968 18.5841 154.168 18.0081 155.728 18.0081C158.032 18.0081 159.184 19.3281 159.184 21.9441V27.8481C159.184 28.5921 158.584 29.1921 157.816 29.1921C157.024 29.1921 156.424 28.5921 156.424 27.8481V22.6641C156.424 21.2961 155.8 20.6001 154.576 20.6001C153.52 20.6001 152.776 21.0081 152.344 21.8481C152.344 21.9441 152.368 22.4721 152.368 22.6401V27.8481C152.368 28.5921 151.768 29.1921 151 29.1921C150.208 29.1921 149.608 28.5921 149.608 27.8481V22.4721C149.608 21.3201 148.96 20.6001 147.808 20.6001C146.824 20.6001 146.056 20.9841 145.552 21.7521V27.8481C145.552 28.5921 144.952 29.1921 144.184 29.1921C143.392 29.1921 142.792 28.5921 142.792 27.8481V19.5441C142.792 18.6081 143.344 18.0321 144.208 18.0321C144.976 18.0321 145.552 18.5841 145.552 19.3761ZM164.002 13.5441V18.8721C164.794 18.2481 165.754 17.9361 166.858 17.9361C168.442 17.9361 169.69 18.4401 170.626 19.4481C171.538 20.4801 171.994 21.8001 171.994 23.4321C171.994 25.2081 171.442 26.6241 170.338 27.6801C169.21 28.7361 167.722 29.2641 165.826 29.2641C164.65 29.2641 163.522 29.0481 162.442 28.6401C161.65 28.3281 161.242 27.7521 161.242 26.9121V13.5441C161.242 12.8001 161.842 12.2001 162.634 12.2001C163.402 12.2001 164.002 12.8001 164.002 13.5441ZM164.002 21.5601V26.1441C164.578 26.5041 165.226 26.6961 165.97 26.6961C167.77 26.6961 169.042 25.5201 169.042 23.6241C169.042 21.6321 167.842 20.5281 166.21 20.5281C165.322 20.5281 164.602 20.8641 164.002 21.5601ZM181.036 22.5921V22.5441C181.036 21.2001 180.1 20.2401 178.564 20.2401C177.004 20.2401 176.044 21.0321 175.732 22.5921H181.036ZM182.716 24.4401H175.828C176.044 26.0481 177.34 26.9601 179.068 26.9601C179.812 26.9601 180.484 26.8161 181.084 26.5521C181.348 26.4321 181.54 26.3841 181.708 26.3841C182.068 26.3841 182.356 26.5521 182.572 26.8881C182.692 27.0801 182.74 27.2481 182.74 27.4161C182.74 27.8241 182.548 28.1361 182.188 28.3521C181.156 28.9521 180.028 29.2641 178.78 29.2641C177.028 29.2641 175.636 28.7361 174.58 27.7041C173.5 26.6721 172.972 25.3041 172.972 23.6001C172.972 21.9921 173.5 20.6241 174.532 19.5441C175.564 18.4641 176.956 17.9361 178.684 17.9361C180.1 17.9361 181.324 18.3921 182.308 19.3281C183.292 20.2641 183.796 21.4881 183.796 22.9521V23.4561C183.724 24.1041 183.364 24.4401 182.716 24.4401ZM186.862 18.0321C187.63 18.0321 188.206 18.5601 188.206 19.2321C188.854 18.3921 189.67 17.9601 190.654 17.9601C191.35 17.9601 192.07 18.3681 192.07 19.2081C192.07 20.1441 191.494 20.6241 190.342 20.6241C190.27 20.6241 190.054 20.6001 189.958 20.6001H189.79C189.094 20.6001 188.566 20.9841 188.206 21.7521V27.8481C188.206 28.5921 187.606 29.1921 186.838 29.1921C186.046 29.1921 185.446 28.5921 185.446 27.8481V19.5441C185.446 18.6081 185.998 18.0321 186.862 18.0321ZM192.352 27.1041C192.352 26.8401 192.424 26.6001 192.592 26.4321C192.832 26.1441 193.12 26.0001 193.456 26.0001C193.72 26.0001 193.984 26.0961 194.248 26.2641C194.992 26.7201 195.808 26.9601 196.744 26.9601C197.584 26.9601 198.16 26.6001 198.16 25.9521C198.16 25.3041 197.248 24.9441 196.12 24.6321C194.44 24.2001 192.328 23.5761 192.328 21.2241C192.328 19.1841 193.984 17.9361 196.288 17.9361C197.56 17.9361 198.64 18.2001 199.576 18.7521C199.96 18.9921 200.152 19.3041 200.152 19.6881C200.152 19.8801 200.104 20.0721 200.008 20.2401C199.792 20.6001 199.48 20.7921 199.048 20.7921C198.832 20.7921 198.616 20.7441 198.4 20.6481C197.776 20.3841 197.128 20.2401 196.432 20.2401C195.64 20.2401 195.088 20.6721 195.088 21.1761C195.088 22.1841 197.176 22.4241 198.856 23.0241C200.008 23.4321 200.92 24.3921 200.92 25.8081C200.92 27.9201 199.216 29.2641 196.552 29.2641C195.04 29.2641 193.792 28.8561 192.808 28.0401C192.496 27.7761 192.352 27.4641 192.352 27.1041Z" fill="#42ABE9"/>
  <path fill-rule="evenodd" clip-rule="evenodd" d="M16 37C24.8366 37 32 29.8366 32 21C32 12.1634 24.8366 5 16 5C7.16344 5 0 12.1634 0 21C0 29.8366 7.16344 37 16 37Z" fill="#42ABE9"/>
  <mask id="mask0_552_6955-354501" style="mask-type:alpha" maskUnits="userSpaceOnUse" x="0" y="5" width="32" height="32">
    <path fill-rule="evenodd" clip-rule="evenodd" d="M16 37C24.8366 37 32 29.8366 32 21C32 12.1634 24.8366 5 16 5C7.16344 5 0 12.1634 0 21C0 29.8366 7.16344 37 16 37Z" fill="white"/>
  </mask>
  <g mask="url(#mask0_552_6955-354501)">
    <path fill-rule="evenodd" clip-rule="evenodd" d="M4 20.8503L7.27249 23.2709L4.61504 25.7841L7.09226 27.9719L5.18192 30.0008L7.62384 31.9664L7.51584 18.4662L4 20.8503Z" fill="#242527"/>
    <mask id="mask1_552_6955-742510" style="mask-type:alpha" maskUnits="userSpaceOnUse" x="7" y="17" width="33" height="34">
      <path fill-rule="evenodd" clip-rule="evenodd" d="M7.28027 18.9219C7.28027 19.5795 7.46401 39.7636 7.53227 41.1031C7.60053 42.4426 7.53438 50.11 13.4706 50.6177C19.4064 51.1258 39.1641 50.6092 39.1641 50.6092C39.1641 50.6092 40.0057 50.6177 39.7235 50.202C39.472 49.8315 22.3351 44.9829 22.3351 44.9829C22.3351 44.9829 21.7401 41.4264 18.6972 40.5028L20.9953 30.3372L7.78404 17.9269C7.78404 17.9269 7.28027 18.2643 7.28027 18.9219Z" fill="white"/>
    </mask>
    <g mask="url(#mask1_552_6955-742510)">
      <path fill-rule="evenodd" clip-rule="evenodd" d="M7.78427 17.9268C7.78427 17.9268 7.28027 18.2642 7.28027 18.9218C7.28027 19.5794 7.46401 39.7637 7.53227 41.103C7.60053 42.4425 7.53461 50.1098 13.4706 50.6179C19.4064 51.1259 39.1644 50.6091 39.1644 50.6091C39.1644 50.6091 40.0592 50.6332 39.7238 50.2021C39.4488 49.8489 22.3353 44.9828 22.3353 44.9828C22.3353 44.9828 21.7404 41.4265 18.6974 40.5027L20.9624 30.4798L7.78427 17.9268Z" fill="#FF5767"/>
    </g>
    <mask id="mask2_552_6955-142323" style="mask-type:alpha" maskUnits="userSpaceOnUse" x="12" y="28" width="27" height="22">
      <path fill-rule="evenodd" clip-rule="evenodd" d="M38.6803 49.796C34.9238 48.5447 22.3349 44.9829 22.3349 44.9829C22.3349 44.9829 21.74 41.4263 18.6971 40.5028L20.9952 30.3372L18.6231 28.1089L12.8872 28.1089V49.796H38.6803Z" fill="white"/>
    </mask>
    <g mask="url(#mask2_552_6955-142323)">
      <path fill-rule="evenodd" clip-rule="evenodd" d="M12.8872 28.1089C12.8872 28.3399 13.268 43.9514 13.268 43.9514C13.268 43.9514 13.1759 48.0667 16.8769 48.1797C20.8336 48.3005 34.0117 49.9394 39.274 49.7858L35.8421 45.3832L22.6514 29.8179L12.8872 28.1089Z" fill="#FFC500"/>
    </g>
    <path fill-rule="evenodd" clip-rule="evenodd" d="M21.8201 30.376C23.7763 30.4453 25.926 30.2495 26.0868 30.1957C26.0878 30.1955 26.578 27.5943 26.524 23.1687C26.47 18.7476 21.9854 18.2743 15.5363 18.1315C13.0698 18.077 7.51831 17.9192 7.51831 17.9192C7.51831 17.9192 8.21447 21.4177 9.51865 24.7296C11.5868 29.981 20.2431 30.32 21.8201 30.376Z" fill="#FF5767"/>
    <path fill-rule="evenodd" clip-rule="evenodd" d="M24.9099 17.4868C25.8606 17.7992 26.2503 19.0701 25.7802 20.3253C25.3101 21.5806 24.1583 22.3451 23.2076 22.0327C22.2569 21.7203 21.8672 20.4495 22.3373 19.1942C22.8074 17.9389 23.9592 17.1744 24.9099 17.4868Z" fill="#FF5767"/>
    <path fill-rule="evenodd" clip-rule="evenodd" d="M24.8076 18.6606C25.1346 18.8505 25.1776 19.4385 24.9037 19.9739C24.6297 20.5093 24.1425 20.7894 23.8155 20.5994C23.4885 20.4097 23.4454 19.8217 23.7194 19.2863C23.9934 18.751 24.4806 18.4706 24.8076 18.6606Z" fill="#242527"/>
    <path fill-rule="evenodd" clip-rule="evenodd" d="M28.0299 19.7387C28.723 20.292 28.594 21.4769 27.7417 22.3856C26.8894 23.2945 25.6364 23.5826 24.9433 23.0293C24.2501 22.4762 24.3792 21.291 25.2315 20.3823C26.0838 19.4737 27.3368 19.1856 28.0299 19.7387Z" fill="#FF5767"/>
    <path fill-rule="evenodd" clip-rule="evenodd" d="M27.1789 21.6009C26.8021 21.9518 26.2988 22.0396 26.0547 21.797C25.8107 21.5545 25.9184 21.0733 26.2953 20.7225C26.6721 20.3716 27.1754 20.2838 27.4195 20.5264C27.6633 20.769 27.5557 21.2501 27.1789 21.6009Z" fill="#242527"/>
    <path fill-rule="evenodd" clip-rule="evenodd" d="M9.87168 9.24405C10.4764 9.19545 10.9281 9.36935 11.0206 9.7608C11.1132 10.1522 10.6882 10.5392 10.3256 10.647C9.96308 10.7549 9.06775 11.5625 8.83726 11.757C8.60677 11.9514 8.13713 11.9229 7.92627 11.7121C7.71565 11.5012 7.76544 11.0798 7.9057 10.7907C8.24981 10.081 8.97074 9.31649 9.87168 9.24405Z" fill="#242527"/>
    <path fill-rule="evenodd" clip-rule="evenodd" d="M16.3676 9.23751C15.7586 9.21675 15.3136 9.4133 15.239 9.81253C15.1644 10.2115 15.609 10.582 15.9779 10.6738C16.3468 10.7656 17.2833 11.5383 17.5236 11.7238C17.7639 11.9092 18.234 11.8583 18.4355 11.636C18.637 11.4135 18.5671 10.9907 18.4131 10.7056C18.0344 10.006 17.2751 9.26842 16.3676 9.23751Z" fill="#242527"/>
    <path fill-rule="evenodd" clip-rule="evenodd" d="M11.1783 12.4856C13.3238 12.6014 14.97 14.4485 14.8554 16.6105C14.7407 18.7728 12.9084 20.4318 10.7631 20.316C8.61738 20.1999 6.9712 18.3531 7.08598 16.1908C7.20052 14.0285 9.03278 12.3697 11.1783 12.4856Z" fill="#6F568E"/>
    <path fill-rule="evenodd" clip-rule="evenodd" d="M17.023 12.449C19.1685 12.5649 20.8149 14.4122 20.7002 16.5752C20.5854 18.7379 18.7531 20.3972 16.6076 20.2813C14.4621 20.1655 12.8159 18.3182 12.9307 16.1552C13.0452 13.9924 14.8775 12.3332 17.023 12.449Z" fill="#6F568E"/>
    <path fill-rule="evenodd" clip-rule="evenodd" d="M11.1032 13.8833C12.4822 13.9578 13.5404 15.1454 13.4668 16.5356C13.3929 17.9261 12.2152 18.9926 10.8362 18.9183C9.45701 18.8437 8.39898 17.6562 8.47262 16.2657C8.54625 14.8755 9.7242 13.8087 11.1032 13.8833Z" fill="white"/>
    <path fill-rule="evenodd" clip-rule="evenodd" d="M11.0327 15.2124C11.684 15.2476 12.1838 15.8082 12.149 16.4644C12.1141 17.1206 11.558 17.6241 10.9067 17.589C10.2555 17.5538 9.75591 16.9932 9.79051 16.337C9.82534 15.6808 10.3815 15.1773 11.0327 15.2124Z" fill="#242527"/>
    <path fill-rule="evenodd" clip-rule="evenodd" d="M16.9499 13.8487C18.3289 13.9233 19.3871 15.1108 19.3132 16.5011C19.2396 17.8916 18.0619 18.9581 16.6827 18.8835C15.3037 18.8092 14.2457 17.6216 14.3193 16.2312C14.3929 14.8409 15.5709 13.7742 16.9499 13.8487Z" fill="white"/>
    <path fill-rule="evenodd" clip-rule="evenodd" d="M16.8792 15.1779C17.5305 15.2131 18.0303 15.7737 17.9954 16.4299C17.9606 17.0861 17.4045 17.5896 16.7532 17.5545C16.1019 17.5193 15.6021 16.9587 15.637 16.3025C15.6718 15.6463 16.2279 15.1428 16.8792 15.1779Z" fill="#242527"/>
    <path fill-rule="evenodd" clip-rule="evenodd" d="M19.5983 30.1794C16.3459 29.631 14.5466 28.9033 13.7635 28.5185C12.5108 27.9027 11.6292 27.0256 11.1432 25.9114C10.9209 25.402 10.8017 24.6691 10.8005 24.6618C10.7804 24.5358 10.6628 24.4504 10.5383 24.4707C10.4134 24.491 10.3288 24.6097 10.3489 24.7354C10.354 24.7678 10.4784 25.5332 10.7246 26.0976C10.8407 26.3642 10.9775 26.6184 11.1344 26.8595L11.0322 29.4637L13.5632 28.9338L14.4644 31.2303L16.9149 30.093L18.1936 32.2466L19.9158 30.6945C20.4464 30.7667 20.8913 30.7971 20.8913 30.7971C20.8913 30.7971 20.9228 30.6622 20.9465 30.5593C20.9687 30.4621 20.9953 30.3372 20.9953 30.3372C20.9953 30.3372 20.3618 30.308 19.5983 30.1794Z" fill="white"/>
  </g>
</svg>
