<svg width="365" height="42" viewBox="0 0 365 42" fill="none" xmlns="http://www.w3.org/2000/svg">
  <path d="M126.201 9.40315H129.508V28.7069H143.041V31.562H126.201V9.40315Z" fill="#5E5F5F"/>
  <path d="M155.079 9.40315H172.981V12.2601H158.386V18.6832H172.543V21.5357H158.386V28.7071H173.289V31.562H155.079V9.40315Z" fill="#5E5F5F"/>
  <path d="M201.165 25.1062H190.254L187.418 31.5612H183.86L193.933 9.40315H197.705L207.778 31.562H204.006L201.165 25.1062ZM195.679 12.4478L191.497 22.2529H199.955L195.679 12.4478Z" fill="#5E5F5F"/>
  <path d="M219.532 9.40315H233.322C237.779 9.40315 239.399 12.4756 239.399 15.3001C239.399 18.002 238.095 19.9877 235.66 20.7642V20.8244C237.625 21.1045 238.78 22.9352 238.906 25.5419C239.092 29.6682 239.213 30.693 239.963 31.562H236.47C235.939 30.9408 235.939 30.0116 235.785 27.3423C235.566 23.3709 234.22 22.1587 231.482 22.1587H222.839V31.562H219.533L219.532 9.40315ZM232.075 19.3044C235.316 19.3044 236.094 17.3508 236.094 15.7983C236.094 13.6876 234.823 12.2601 232.168 12.2601H222.839V19.3036L232.075 19.3044Z" fill="#5E5F5F"/>
  <path d="M255.932 13.9376H255.867V31.562H252.56V9.40315H256.399L270.71 27.0343H270.775V9.40315H274.086V31.562H270.248L255.932 13.9376Z" fill="#5E5F5F"/>
  <path d="M288.643 9.40315H291.95V31.562H288.643V9.40315Z" fill="#5E5F5F"/>
  <path d="M309.879 13.9376H309.814V31.562H306.512V9.40315H310.345L324.661 27.0343H324.725V9.40315H328.032V31.562H324.195L309.879 13.9376Z" fill="#5E5F5F"/>
  <path d="M354.503 19.6147H364.73V31.562H362.364L361.805 28.3958C360.333 30.1033 357.968 32.1215 353.254 32.1215C344.341 32.1215 341.5 25.7264 341.5 20.8557C341.5 12.2893 347.396 8.84448 353.166 8.84448C357.749 8.84448 362.96 10.2717 364.357 16.3868H360.864C359.84 13.3142 357.53 11.6992 353.32 11.6992C347.424 11.6992 344.807 15.8584 344.807 20.5783C344.807 26.8439 348.83 29.2678 353.478 29.2678C358.312 29.2678 361.46 26.4107 361.805 22.469H354.503V19.6147Z" fill="#5E5F5F"/>
  <path fill-rule="evenodd" clip-rule="evenodd" d="M75.9827 42H113.201V31.7388H93.7304V0H75.9517L75.9827 42Z" fill="#FFCA05"/>
  <path fill-rule="evenodd" clip-rule="evenodd" d="M21.021 42H42.4039L53.1444 27.7916L63.5221 42H86.6589L67.2899 20.4589L86.0315 0H64.251L54.3015 13.0238L44.7164 0H21.5818L40.0585 20.4589L21.021 42Z" fill="#FFCA05"/>
  <path fill-rule="evenodd" clip-rule="evenodd" d="M0.0309966 42H17.8142L17.7789 0H0L0.0309966 42Z" fill="#00AEEF"/>
  <path fill-rule="evenodd" clip-rule="evenodd" d="M75.9829 42H86.6589L75.9829 30.0938V42ZM86.0315 0H75.9525V11.0184L86.0315 0Z" fill="#E7B809"/>
</svg>