<svg xmlns="http://www.w3.org/2000/svg" xmlns:xlink="http://www.w3.org/1999/xlink" width="163" height="20" viewBox="0 0 163 20">
    <defs>
        <path id="a" d="M.06 4.47h2.299c.245 0 .444.194.444.433v2.596c0 .24.2.433.445.433H6.36v-3.03c0-.238.2-.432.445-.432h2.667c.246 0 .445.194.445.433v2.596c0 .24-.2.433-.445.433H6.36v3.462h3.112c.246 0 .445.193.445.432v2.597c0 .239-.2.433-.445.433H6.805a.439.439 0 0 1-.445-.433v-3.03H3.248a.439.439 0 0 0-.445.433v2.988l3.766 3.885a.81.81 0 0 0 1.155 0l5.25-5.407.025-.023c1.279-1.443 2.075-3.295 2.075-5.335 0-4.35-3.542-7.89-7.912-7.89C4.045.043 1.35 1.873.06 4.47z"/>
        <path id="b" d="M.06 4.47h2.299c.245 0 .444.194.444.433v2.596c0 .24.2.433.445.433H6.36v-3.03c0-.238.2-.432.445-.432h2.667c.246 0 .445.194.445.433v2.596c0 .24-.2.433-.445.433H6.36v3.462H3.248a.439.439 0 0 0-.445.432v2.988l3.766 3.885a.81.81 0 0 0 1.155 0l5.25-5.407.025-.023c1.279-1.443 2.075-3.295 2.075-5.335 0-4.35-3.542-7.89-7.912-7.89C4.045.043 1.35 1.873.06 4.47zm9.412 6.924c.246 0 .445.193.445.432v2.597c0 .239-.2.433-.445.433H6.805a.439.439 0 0 1-.445-.433v-3.03h3.112z"/>
    </defs>
    <g fill="none" fill-rule="evenodd">
        <g transform="translate(0 .5)">
            <mask id="c" fill="#fff">
                <use xlink:href="#b"/>
            </mask>
            <path fill="#39D479" d="M-.202 19.199h15.538V-.214H-.202z" mask="url(#c)"/>
        </g>
        <g fill="#231F20">
            <path d="M42.52 7.26a3.89 3.89 0 0 0-1.427-1.032c-.565-.24-1.224-.361-1.96-.361-.88 0-1.632.16-2.233.476-.607.319-1.083.69-1.414 1.106l-.336.421-.156-1.759h-2.3v11.904h2.584v-7.922l.035-.052c.33-.49.739-.919 1.217-1.273.495-.37 1.11-.557 1.824-.557.848 0 1.527.28 2.02.83.485.542.73 1.263.73 2.142v6.832h2.609v-7.003c0-.774-.103-1.49-.304-2.127a4.574 4.574 0 0 0-.888-1.626M70.202 6.108h-2.795L64.02 14.98l-3.39-8.872h-2.64l4.705 11.916h2.64l3.47-8.792 3.473 8.792h2.637l4.706-11.916h-2.636l-3.382 8.893zM51.692 16.037c-1.992 0-3.382-1.65-3.382-4.01 0-2.361 1.39-4.01 3.382-4.01 1.977 0 3.358 1.649 3.358 4.01 0 2.36-1.38 4.01-3.358 4.01m0-10.223c-3.661 0-6.218 2.554-6.218 6.212 0 3.659 2.557 6.213 6.218 6.213 3.646 0 6.193-2.554 6.193-6.213 0-3.658-2.547-6.212-6.193-6.212M27.604 6.107l-5.112 5.233V3.607l-.123-2.146h-2.478v16.567h2.601v-3.234l1.962-1.983 3.382 5.217 2.793-.012-4.427-6.98 4.779-4.93zM91.388 10.756l.007-.062c.034-.288.407-2.816 3.05-2.816 1.727 0 2.548 1.055 2.932 1.94l.003.005c.08.262.132.546.153.845l.007.088h-6.152zm8.907 1.093h-.058l-.001-.04-.006-.153a7.751 7.751 0 0 0-.348-2.156A5.732 5.732 0 0 0 98.83 7.56a4.95 4.95 0 0 0-1.754-1.317c-.705-.323-1.54-.487-2.482-.487a6.29 6.29 0 0 0-2.436.464 5.626 5.626 0 0 0-1.918 1.31 5.965 5.965 0 0 0-1.248 1.99 6.964 6.964 0 0 0-.442 2.512c0 .905.149 1.746.442 2.498a5.759 5.759 0 0 0 1.26 1.966 5.753 5.753 0 0 0 1.967 1.297c.764.309 1.639.465 2.6.465 1.142 0 2.137-.184 2.958-.548a6.148 6.148 0 0 0 2.083-1.527l-1.87-1.48c-.288.359-.684.659-1.175.916-.54.285-1.203.429-1.971.429-1.077 0-1.93-.273-2.534-.811-.593-.528-.917-1.291-.961-2.268l-.004-.088h8.884l.003-.302c.003-.16.004-.353.004-.573l.003-.122c0-.01 0-.02-.002-.031l.058-.003zM84.145 7.644l-.002.003-.34.533-.19-2.074H81.31v11.917h2.586v-7.637l.007-.012c.011-.022.285-.526.94-1.036.595-.465 1.629-1.017 3.185-1.03V5.85c-2.23.018-3.39 1.128-3.883 1.793"/>
        </g>
        <path fill="#231F20" fill-rule="nonzero" d="M123.028 5.94c2.744 0 4.387 1.755 4.387 4.612V18h-2.588v-6.727c0-1.823-1.08-2.925-2.834-2.925-2.048.067-3.285 1.642-3.285 3.734V18h-2.588v-6.727c0-1.823-1.058-2.925-2.813-2.925-2.07.067-3.33 1.642-3.33 3.734V18h-2.565V6.03h2.566v2.317c.832-1.687 2.362-2.407 4.342-2.407 2.138 0 3.6 1.057 4.163 2.88.764-2.003 2.362-2.88 4.544-2.88zM137.282 18v-1.462c-.855 1.057-2.227 1.575-3.96 1.575-2.587 0-4.207-1.598-4.207-3.713 0-2.183 1.642-3.578 4.522-3.6h3.623v-.36c0-1.508-.968-2.407-2.857-2.407-1.148 0-2.34.404-3.533 1.215l-1.058-1.8c1.665-.99 2.88-1.508 5.153-1.508 3.083 0 4.815 1.575 4.838 4.207l.022 7.853h-2.542zm-3.42-1.935c1.846 0 3.263-.968 3.398-2.273V12.69h-3.24c-1.688 0-2.475.45-2.475 1.597 0 1.08.878 1.778 2.318 1.778zM148.635 15.255l.653 1.98c-.946.563-1.936.878-2.948.878-1.8 0-3.352-1.035-3.352-3.488v-6.21H141.3V6.48h1.688V3.195h2.565V6.48h3.532v1.935h-3.532v5.737c0 1.238.472 1.62 1.282 1.62.54 0 1.102-.18 1.8-.517zM158.03 5.94c2.79 0 4.455 1.755 4.455 4.612V18h-2.588v-6.727c0-1.8-1.08-2.903-2.88-2.903-2.137.023-3.42 1.62-3.42 3.735V18h-2.587V1.305h2.588V8.37c.854-1.687 2.384-2.43 4.432-2.43z"/>
    </g>
</svg>
