<?xml version="1.0" encoding="utf-8"?>
<!-- Generator: Adobe Illustrator 26.5.0, SVG Export Plug-In . SVG Version: 6.00 Build 0)  -->
<svg version="1.1" id="header-logo" xmlns="http://www.w3.org/2000/svg" xmlns:xlink="http://www.w3.org/1999/xlink" x="0px"
	 y="0px" width="231.6px" height="70.4px" viewBox="0 0 231.6 70.4" style="enable-background:new 0 0 231.6 70.4;"
	 xml:space="preserve">
<path id="Path_1" d="M7.7,2.1C10,0.7,12.7,0,15.4,0c3.3,0,6.6,1.1,9.2,3.2l1,0.8C25.9,4.2,26,4.5,26,4.9c0,0.5-0.2,0.9-0.5,1.3
	l-0.9,1.2c-0.3,0.4-0.8,0.7-1.3,0.8c-0.4,0-0.8-0.2-1.1-0.5l-0.6-0.4C19.9,5.8,17.7,5,15.4,5c-1.9,0-3.7,0.5-5.3,1.4
	c-1.6,1-2.9,2.3-3.8,3.9c-0.9,1.7-1.4,3.5-1.4,5.4c0,1.9,0.5,3.7,1.4,5.4c0.9,1.6,2.2,3,3.8,3.9c1.6,1,3.4,1.4,5.3,1.4
	c2.2,0,4.4-0.7,6.2-2.1l1-0.8c0.2-0.2,0.4-0.2,0.6-0.2c0.6,0.1,1.1,0.4,1.4,0.9l0.9,1.2c0.2,0.3,0.4,0.7,0.4,1.1
	c0,0.5-0.3,1-0.8,1.3l-0.6,0.5c-2.6,2.1-5.9,3.2-9.2,3.2c-5.5,0-10.7-3-13.3-7.9c-1.4-2.4-2.1-5.1-2-7.8c0-2.8,0.7-5.6,2.1-8
	C3.4,5.4,5.3,3.4,7.7,2.1z"/>
<path id="Path_2" d="M33.1,30.6c-0.1-0.2-0.2-0.4-0.2-0.6c0-0.3,0.1-0.5,0.2-0.8L44,1.8c0.3-0.9,1.1-1.5,2-1.4h2.6
	c0.9-0.1,1.7,0.5,2,1.4l10.9,27.4c0.1,0.3,0.2,0.5,0.2,0.8c0,0.2-0.1,0.4-0.2,0.6c-0.3,0.4-0.9,0.7-1.4,0.6h-1.8
	c-0.9,0.1-1.7-0.5-2-1.4l-1.5-3.7c-0.3-0.9-1.1-1.5-2-1.4h-11c-0.9-0.1-1.7,0.5-2,1.4l-1.5,3.7c-0.3,0.9-1.1,1.5-2,1.4h-1.8
	C34,31.3,33.4,31,33.1,30.6z M43.2,17.6c-0.1,0.3-0.2,0.5-0.2,0.8c0,0.2,0.1,0.5,0.2,0.7c0.3,0.4,0.9,0.6,1.4,0.5H50
	c0.5,0.1,1.1-0.2,1.4-0.6c0.1-0.2,0.2-0.5,0.2-0.7c0-0.3-0.1-0.5-0.2-0.8l-3-7.4C48.1,9.4,47.7,9,47.2,9s-0.9,0.4-1.2,1.1L43.2,17.6
	z"/>
<path id="Path_3" d="M67.1,29.4V2.2c-0.1-0.9,0.5-1.7,1.4-1.8c0.1,0,0.3,0,0.4,0h12.4c2.3-0.1,4.6,0.8,6.2,2.5
	C89.1,4.7,90,7,89.9,9.4c0,1.9-0.5,3.7-1.5,5.3c-0.9,1.5-2.3,2.6-4,3.2c-0.8,0.3-1.2,0.8-1.2,1.3c0,0.3,0.1,0.6,0.3,0.9l6.2,8.8
	c0.2,0.3,0.4,0.7,0.4,1.1c0,0.2-0.1,0.3-0.1,0.5c-0.2,0.4-0.7,0.6-1.4,0.6h-1.8c-0.8,0-1.6-0.4-2.1-1.1l-7.3-10.5
	c-0.5-0.7-1.3-1.1-2.1-1.1h-1.4c-0.9-0.1-1.7,0.5-1.8,1.4c0,0.1,0,0.3,0,0.4v9.1c0.1,0.9-0.5,1.7-1.4,1.8c-0.1,0-0.3,0-0.4,0h-1.4
	C67.7,31.2,67.1,30.6,67.1,29.4z M72,11.9c-0.1,0.9,0.5,1.7,1.4,1.8c0.1,0,0.3,0,0.4,0h7.4c1.1,0.1,2.1-0.4,2.8-1.2
	c0.7-0.9,1-1.9,1-3c0-1-0.3-2.1-0.9-2.9c-0.6-0.8-1.7-1.3-2.7-1.2h-7.5C72.6,5.4,72,6,72,7.1V11.9z"/>
<path id="Path_4" d="M131.5,29.4V2.2c-0.1-0.9,0.5-1.7,1.4-1.8c0.1,0,0.3,0,0.4,0h18.5c0.9-0.1,1.7,0.5,1.8,1.4c0,0.1,0,0.3,0,0.4
	v1.5c0.1,0.9-0.5,1.7-1.4,1.8c-0.1,0-0.3,0-0.4,0h-13.4c-0.9-0.1-1.7,0.5-1.8,1.4c0,0.1,0,0.3,0,0.4v4.6c-0.1,0.9,0.5,1.7,1.4,1.8
	c0.1,0,0.3,0,0.4,0h7.6c0.9-0.1,1.7,0.5,1.8,1.4c0,0.1,0,0.3,0,0.4V17c0.1,0.9-0.5,1.7-1.4,1.8c-0.1,0-0.3,0-0.4,0h-7.6
	c-0.9-0.1-1.7,0.5-1.8,1.4c0,0.1,0,0.3,0,0.4v4c0,1.2,0.6,1.7,1.8,1.7h13.4c0.9-0.1,1.7,0.5,1.8,1.4c0,0.1,0,0.3,0,0.4v1.5
	c0.1,0.9-0.5,1.7-1.4,1.8c-0.1,0-0.3,0-0.4,0h-18.5c-1,0-1.8-0.9-1.8-1.9C131.5,29.5,131.5,29.4,131.5,29.4z"/>
<path id="Path_5" d="M162.6,4.6c1.5-1.4,3.2-2.6,5.1-3.4c1.9-0.8,4-1.2,6.1-1.2c3.4,0,6.8,1.1,9.5,3.2l1,0.8
	c0.3,0.2,0.5,0.5,0.5,0.9c0,0.5-0.3,0.9-0.6,1.3l-0.9,1.2c-0.3,0.5-0.8,0.8-1.3,0.8c-0.4,0-0.8-0.2-1.1-0.5l-0.6-0.5
	c-1.9-1.4-4.2-2.2-6.5-2.2c-1.9,0-3.7,0.5-5.4,1.4c-3.3,1.9-5.4,5.5-5.3,9.3c0,1.9,0.5,3.7,1.4,5.4c1.9,3.3,5.5,5.4,9.3,5.3
	c1.5,0,3-0.3,4.4-1c0.8-0.4,1.3-1.2,1.2-2.1v-3.1c0-1.2-0.6-1.8-1.7-1.8h-3.4c-0.9,0.1-1.7-0.5-1.8-1.4c0-0.1,0-0.3,0-0.4v-1.5
	c-0.1-0.9,0.5-1.7,1.4-1.8c0.1,0,0.3,0,0.4,0h8.5c0.9-0.1,1.7,0.5,1.8,1.4c0,0.1,0,0.3,0,0.4v10.8c0.1,0.8-0.3,1.6-1,2.1
	c-2.8,2.2-6.3,3.4-9.8,3.3c-2.1,0-4.2-0.4-6.1-1.2c-1.9-0.8-3.6-2-5.1-3.4c-1.4-1.5-2.6-3.2-3.4-5.1c-0.8-1.9-1.2-4-1.2-6.1
	c0-2.1,0.4-4.2,1.2-6.1C160.1,7.6,161.2,6,162.6,4.6z"/>
<path id="Path_6" d="M194,2.2c-0.1-0.9,0.5-1.7,1.4-1.8c0.1,0,0.3,0,0.4,0h1.5c0.9-0.1,1.7,0.5,1.8,1.4c0,0.1,0,0.3,0,0.4v27.3
	c0.1,0.9-0.5,1.7-1.4,1.8c-0.1,0-0.3,0-0.4,0h-1.5c-0.9,0.1-1.7-0.5-1.8-1.4c0-0.1,0-0.3,0-0.4V2.2z"/>
<path id="Path_7" d="M3.1,68.2V40.9C3,40,3.6,39.2,4.5,39.1c0.1,0,0.3,0,0.4,0h1.5c0.9-0.1,1.7,0.5,1.8,1.4c0,0.1,0,0.3,0,0.4v22.2
	c0,1.2,0.6,1.7,1.8,1.7h13.4c0.9-0.1,1.7,0.5,1.8,1.4c0,0.1,0,0.3,0,0.4v1.5c0.1,0.9-0.5,1.7-1.4,1.8c-0.1,0-0.3,0-0.4,0H4.9
	C3.7,70,3.1,69.4,3.1,68.2z"/>
<path id="Path_8" d="M60.3,69.4c-0.1-0.2-0.2-0.4-0.2-0.6c0-0.3,0.1-0.5,0.2-0.8l10.9-27.4c0.3-0.9,1.1-1.5,2-1.4h2.6
	c0.9-0.1,1.7,0.5,2,1.4L88.7,68c0.1,0.3,0.2,0.5,0.2,0.8c0,0.2-0.1,0.4-0.2,0.6c-0.3,0.4-0.8,0.7-1.3,0.6h-1.8
	c-0.9,0.1-1.7-0.5-2-1.4L82,64.9c-0.3-0.9-1.1-1.5-2-1.4H69c-0.9-0.1-1.7,0.5-2,1.4l-1.5,3.7c-0.3,0.9-1.1,1.5-2,1.4h-1.8
	C61,70,60.5,69.8,60.3,69.4z M70.4,56.4c-0.1,0.3-0.2,0.5-0.2,0.8c0,0.2,0.1,0.5,0.2,0.7c0.3,0.4,0.9,0.6,1.4,0.5h5.5
	c0.5,0.1,1.1-0.2,1.4-0.6c0.1-0.2,0.2-0.5,0.2-0.7c0-0.3-0.1-0.5-0.2-0.8l-3-7.4c-0.3-0.7-0.7-1.1-1.2-1.1s-0.9,0.4-1.2,1.1
	L70.4,56.4z"/>
<path id="Path_9" d="M94.3,68.2V40.9c-0.1-0.9,0.5-1.7,1.4-1.8c0.1,0,0.3,0,0.4,0h12.4c2.3-0.1,4.6,0.8,6.2,2.5
	c1.6,1.8,2.5,4.1,2.4,6.5c0,1.9-0.5,3.7-1.5,5.3c-0.9,1.5-2.3,2.6-4,3.2c-0.8,0.3-1.2,0.8-1.2,1.3c0,0.3,0.1,0.6,0.3,0.9l6.2,8.8
	c0.2,0.3,0.4,0.7,0.4,1.1c0,0.2-0.1,0.3-0.1,0.5c-0.2,0.4-0.7,0.6-1.4,0.6H114c-0.8,0-1.6-0.4-2.1-1.1l-7.3-10.5
	c-0.5-0.7-1.3-1.1-2.1-1.1H101c-0.9-0.1-1.7,0.5-1.8,1.4c0,0.1,0,0.3,0,0.4V68c0.1,0.9-0.5,1.7-1.4,1.8c-0.1,0-0.3,0-0.4,0H96
	C94.9,70,94.3,69.4,94.3,68.2z M99.2,50.6c-0.1,0.9,0.5,1.7,1.4,1.8c0.1,0,0.3,0,0.4,0h7.4c1.1,0.1,2.1-0.4,2.8-1.2
	c0.7-0.9,1-1.9,1-3c0-1-0.3-2.1-0.9-2.9c-0.6-0.8-1.7-1.3-2.7-1.2H101c-0.9-0.1-1.7,0.5-1.8,1.4c0,0.1,0,0.3,0,0.4L99.2,50.6z"/>
<path id="Path_10" d="M158.8,40.9c-0.1-0.9,0.5-1.7,1.4-1.8c0.1,0,0.3,0,0.4,0h1.5c0.9-0.1,1.7,0.5,1.8,1.4c0,0.1,0,0.3,0,0.4v27.3
	c0.1,0.9-0.5,1.7-1.4,1.8c-0.1,0-0.3,0-0.4,0h-1.5c-0.9,0.1-1.7-0.5-1.8-1.4c0-0.1,0-0.3,0-0.4V40.9z"/>
<path id="Path_11" d="M173.3,68.2V41c-0.1-0.9,0.5-1.7,1.4-1.8c0.1,0,0.3,0,0.4,0h2.3c0.9,0,1.7,0.4,2.1,1.2L192,58.8
	c0.4,0.6,0.8,0.9,1.2,0.9h0.3c0.5-0.1,0.7-0.7,0.7-1.5V41c-0.1-0.9,0.5-1.7,1.4-1.8c0.1,0,0.3,0,0.4,0h1.4c0.9-0.1,1.7,0.5,1.8,1.4
	c0,0.1,0,0.3,0,0.4v27.3c0.1,0.9-0.5,1.7-1.4,1.8c-0.1,0-0.3,0-0.4,0h-2.3c-0.8,0-1.6-0.4-2.1-1.1l-12.5-18.4
	c-0.4-0.6-0.8-0.9-1.2-0.9H179c-0.5,0.1-0.7,0.6-0.7,1.5v17.1c0.1,0.9-0.5,1.7-1.4,1.8c-0.1,0-0.3,0-0.4,0H175
	c-0.9,0-1.7-0.6-1.7-1.5C173.3,68.4,173.3,68.3,173.3,68.2z"/>
<path id="Path_12" d="M209.4,43.4c1.5-1.4,3.2-2.6,5.1-3.4c1.9-0.8,4-1.2,6.1-1.2c3.4,0,6.8,1.1,9.5,3.2l1,0.8
	c0.3,0.2,0.5,0.5,0.5,0.9c0,0.5-0.3,0.9-0.6,1.3l-0.9,1.2c-0.3,0.5-0.8,0.8-1.3,0.8c-0.4,0-0.8-0.2-1.1-0.5L227,46
	c-1.9-1.4-4.2-2.2-6.5-2.2c-1.9,0-3.7,0.5-5.4,1.4c-3.3,1.9-5.4,5.5-5.3,9.3c0,1.9,0.5,3.7,1.4,5.4c1.9,3.3,5.5,5.4,9.3,5.3
	c1.5,0,3-0.3,4.4-1c0.8-0.4,1.3-1.2,1.2-2.1V59c0-1.2-0.6-1.8-1.7-1.8H221c-0.9,0.1-1.7-0.5-1.8-1.4c0-0.1,0-0.3,0-0.4v-1.5
	c-0.1-0.9,0.5-1.7,1.4-1.8c0.1,0,0.3,0,0.4,0h8.5c0.9-0.1,1.7,0.5,1.8,1.4c0,0.1,0,0.3,0,0.4V65c0.1,0.8-0.3,1.6-1,2.1
	c-2.8,2.2-6.3,3.4-9.8,3.3c-2.1,0-4.2-0.4-6.1-1.2c-1.9-0.8-3.6-2-5.1-3.4c-1.4-1.5-2.6-3.2-3.4-5.1c-0.8-1.9-1.2-4-1.2-6.1
	c0-2.1,0.4-4.2,1.2-6.1C206.7,46.6,207.9,44.9,209.4,43.4z"/>
<path id="Path_13" d="M147.6,39.2h-1.4c-1,0-1.8,0.8-1.8,1.8c0,0,0,0,0,0v17.1c0,0.9-0.2,1.4-0.7,1.5h-0.3c-0.4,0-0.8-0.3-1.2-0.9
	l-12.5-18.4c0-0.1,0-0.1-0.1-0.1l0,0l-6.1-9c-0.4-0.5-0.6-1.2-0.6-1.8V2.2c0-1-0.8-1.8-1.8-1.8c0,0,0,0,0,0h-1.4
	c-1,0-1.8,0.8-1.8,1.8c0,0,0,0,0,0v17.1c0,0.9-0.2,1.4-0.7,1.5h-0.3c-0.4,0-0.8-0.3-1-0.7L103.5,1.6c-0.4-0.8-1.2-1.2-2.1-1.2H99
	c-1,0-1.8,0.8-1.8,1.8c0,0,0,0,0,0v27.3c0,1,0.8,1.8,1.8,1.8c0,0,0,0,0,0h1.4c1,0,1.8-0.8,1.8-1.8c0,0,0,0,0,0V12.3
	c0-0.9,0.2-1.4,0.7-1.5h0.3c0.4,0,0.8,0.3,1.2,0.9l12.5,18.4l0.1,0.1l6.1,9c0.4,0.5,0.6,1.2,0.6,1.8v27.2c0,1,0.8,1.8,1.8,1.8
	c0,0,0,0,0,0h1.4c1,0,1.8-0.8,1.8-1.8c0,0,0,0,0,0V51.1c0-0.9,0.2-1.4,0.7-1.5h0.3c0.4,0,0.8,0.3,1,0.7L143.4,69
	c0.4,0.7,1.2,1.2,2.1,1.1h2.3c1,0,1.8-0.8,1.8-1.8c0,0,0,0,0,0V41C149.4,40,148.6,39.3,147.6,39.2z"/>
<path id="Path_14" d="M229.3,5.6h-19.9c-0.6,0-1.1-0.5-1.1-1.1v-3c0-0.6,0.5-1.1,1.1-1.1h19.9c0.6,0,1.1,0.5,1.1,1.1v3
	C230.4,5.1,229.9,5.6,229.3,5.6z"/>
<path id="Path_15" d="M229.3,31.2h-19.9c-0.6,0-1.1-0.5-1.1-1.1v-3c0-0.6,0.5-1.1,1.1-1.1h19.9c0.6,0,1.1,0.5,1.1,1.1v3
	C230.4,30.7,229.9,31.2,229.3,31.2z"/>
<path id="Path_16" d="M223.4,18.4h-14c-0.6,0-1.1-0.5-1.1-1.1v-3c0-0.6,0.5-1.1,1.1-1.1h14c0.6,0,1.1,0.5,1.1,1.1v3
	C224.5,17.9,224,18.4,223.4,18.4z"/>
<path id="Path_17" d="M52.9,44.3H33c-0.6,0-1.1-0.5-1.1-1.1v-3c0-0.6,0.5-1.1,1.1-1.1h19.9c0.6,0,1.1,0.5,1.1,1.1v3
	C54,43.8,53.5,44.3,52.9,44.3z"/>
<path id="Path_18" d="M52.9,70H33c-0.6,0-1.1-0.5-1.1-1.1v-3c0-0.6,0.5-1.1,1.1-1.1h19.9c0.6,0,1.1,0.5,1.1,1.1v3
	C54,69.5,53.5,70,52.9,70z"/>
<path id="Path_19" d="M47,57.1H33c-0.6,0-1.1-0.5-1.1-1.1v-3c0-0.6,0.5-1.1,1.1-1.1h14c0.6,0,1.1,0.5,1.1,1.1v3c0,0.6-0.4,1.1-1,1.1
	C47.1,57.1,47,57.1,47,57.1z"/>
</svg>
