<?xml version="1.0" encoding="UTF-8"?>
<svg width="112px" height="36px" viewBox="0 0 112 36" version="1.1" xmlns="http://www.w3.org/2000/svg" xmlns:xlink="http://www.w3.org/1999/xlink">
    <title>30713808-38B4-4820-9DAB-FE140C43A72C</title>
    <g id="Landing-Page" stroke="none" stroke-width="1" fill="none" fill-rule="evenodd">
        <g id="Landing-Page-[Desktop-00-01]-Landing-Page---Victoria" transform="translate(-24.000000, -14.000000)">
            <g id="Logo" transform="translate(24.000000, 14.000000)">
                <path d="M111.596067,30.3489 C111.954166,30.6297 112.118333,30.627 107.378252,30.4218 C103.225383,30.2445 103.155025,30.4695 107.231224,30.8916 C111.652894,31.3515 111.652894,31.6341 107.228518,31.2498 C100.975761,30.7053 78.3180859,29.6739 71.4781181,29.6217 C47.7632832,29.4498 36.6468698,30.0699 12.2888993,32.9265 C6.72077042,33.5781 1.97617982,34.1037 1.74706841,34.092 C1.51615297,34.0794 1.33484827,33.9768 1.34477042,33.8598 L1.34657445,33.8598 C1.35559458,33.7428 1.09581472,33.6348 0.766579818,33.6177 C-0.2896779,33.5673 -0.250891323,33.1137 0.861291228,32.4891 C2.76363754,31.4208 7.37473015,30.4758 12.6542147,30.0726 C14.1975597,29.9547 18.6859785,29.5479 22.6322872,29.1681 C29.3504832,28.5228 34.0743275,28.2681 41.1280724,28.1691 C42.7471865,28.1484 44.2842174,28.0881 44.5421932,28.035 C45.4126362,27.8604 58.2807597,27.5625 65.3137583,27.5517 C69.1437073,27.5472 72.5244536,27.4671 72.8284322,27.3744 C74.5359436,26.8515 110.667895,29.6217 111.596067,30.3489 Z M64.8279339,1.27296 C65.369142,1.27296 65.8309728,1.46826 66.2179366,1.85976 C66.6039983,2.24946 66.7961272,2.71926 66.7961272,3.27096 C66.7961272,3.81096 66.6067044,4.26906 66.2260547,4.64796 C65.8454051,5.02776 65.3790641,5.21766 64.8279339,5.21766 C64.2749997,5.21766 63.8068547,5.02776 63.420793,4.64796 C63.0347312,4.26906 62.8426024,3.79926 62.8426024,3.23676 C62.8426024,2.69766 63.0347312,2.23506 63.420793,1.85076 C63.8068547,1.46556 64.2749997,1.27296 64.8279339,1.27296 Z" id="Fill-66" fill="#FF6E00"></path>
                <path d="M43.6114056,16.37136 C42.5840123,16.78986 41.0433734,17.14446 38.9876848,17.43966 C37.8231855,17.60526 37.0005492,17.79426 36.518874,18.00216 C36.0362969,18.21276 35.6655693,18.51696 35.4012794,18.92196 C35.1405975,19.32426 35.0089036,19.77246 35.0089036,20.26386 C35.0089036,21.01536 35.2948418,21.64356 35.8649143,22.14666 C36.4367908,22.64886 37.2729573,22.89906 38.3752177,22.89906 C39.4639479,22.89906 40.4345143,22.66146 41.284211,22.18626 C42.1321036,21.70926 42.7562969,21.05766 43.1540848,20.23146 C43.4580633,19.59336 43.6114056,18.65106 43.6114056,17.40726 L43.6114056,16.37136 Z M81.8125761,-2.27373675e-13 C82.7885546,-2.27373675e-13 83.622917,0.2799 84.3201734,0.8379 C85.0147237,1.3959 85.3629009,2.0727 85.3629009,2.8665 C85.3629009,3.3651 85.2077546,3.7926 84.89656,4.1517 C84.5853653,4.5108 84.2029116,4.6926 83.7501009,4.6926 C83.3135264,4.6926 82.9274647,4.527 82.5991318,4.1985 C82.2717009,3.8709 82.1075344,3.4884 82.1075344,3.0555 C82.1075344,2.6181 82.2834271,2.2221 82.6379183,1.8621 C82.9906056,1.503 83.1664982,1.3032 83.1664982,1.2654 C83.1664982,1.0062 82.8002808,0.8757 82.0687479,0.8757 C80.4234754,0.8757 79.2481519,1.7811 78.5472875,3.5937 C77.844619,5.4045 77.3367855,7.8084 77.0183747,10.8009 L79.6739022,10.8009 L79.4889895,11.7486 L76.9101331,11.7486 L75.5742512,19.8297 C75.1358727,22.4613 74.6902781,24.6024 74.2374673,26.2521 C73.7864606,27.9036 73.2470566,29.3607 72.6210593,30.6279 C71.9905519,31.8942 71.3573385,32.8527 70.7169089,33.5025 C70.0764794,34.1541 69.373811,34.6401 68.6125116,34.956 C67.8494083,35.2728 67.1512499,35.4312 66.5171344,35.4312 C65.6277492,35.4312 64.8682539,35.1792 64.2404526,34.6761 C63.6108472,34.1748 63.2978485,33.5673 63.2978485,32.8617 C63.2978485,32.391 63.4367586,31.9806 63.7181868,31.6323 C63.998713,31.2849 64.4190512,31.1121 64.9810056,31.1121 C66.0047908,31.1121 66.5171344,31.6953 66.5171344,32.8617 C66.5171344,33.1596 66.4503855,33.4197 66.3168875,33.6438 C66.1815855,33.867 66.1130324,34.0533 66.1130324,34.2018 C66.1130324,34.425 66.284415,34.5375 66.6280821,34.5375 C67.6040606,34.5375 68.4880338,34.0443 69.2809036,33.057 C70.0737734,32.0715 70.8053063,29.007 71.4755022,23.8689 L72.2268794,18.0414 L73.1577573,12.6981 L73.1729995,12.6280102 C73.189383,12.5459082 73.2149707,12.4045714 73.2497626,12.204 C73.2984714,11.9259 73.3300418,11.7738 73.341768,11.7486 L69.9754539,11.7486 L70.1585626,10.8009 L73.5618593,10.8009 C74.2942942,7.1622 75.4299291,4.4541 76.9741761,2.673 C78.517521,0.8901 80.131223,-2.27373675e-13 81.8125761,-2.27373675e-13 Z M40.010568,7.69536 C41.4366512,7.69536 42.5939344,7.86276 43.4851237,8.19666 C44.376313,8.53146 45.0320767,8.95266 45.451513,9.45936 C45.8700472,9.96696 46.1650056,10.60776 46.3318781,11.38176 C46.4247855,11.86326 46.4734942,12.73086 46.4734942,13.98726 L46.4734942,17.75196 C46.4734942,20.37726 46.5330271,22.03866 46.6538969,22.73346 C46.7747667,23.42826 47.0128982,24.09606 47.3700955,24.73596 L44.4132955,24.73596 C44.1192391,24.14916 43.9316204,23.46336 43.8468311,22.67946 C42.7977895,23.56956 41.7893385,24.19596 40.81787,24.56136 C39.8500096,24.92856 38.8081841,25.11216 37.6987076,25.11216 C35.8640123,25.11216 34.4532633,24.66486 33.4682647,23.77026 C32.482364,22.87566 31.9889626,21.73266 31.9889626,20.34216 C31.9889626,19.52496 32.1747774,18.77976 32.548211,18.10656 C32.9198405,17.43156 33.4069277,16.88886 34.0103747,16.48206 C34.6138217,16.07256 35.2912338,15.76476 36.048023,15.55596 C36.6027613,15.40926 37.4416338,15.26886 38.5628365,15.13296 C40.8485385,14.86116 42.5316955,14.53626 43.6114056,14.15826 C43.6213277,13.77126 43.6267398,13.52646 43.6267398,13.42116 C43.6267398,12.27186 43.3597438,11.46006 42.8248499,10.99026 C42.1014351,10.35216 41.0262351,10.03356 39.6001519,10.03356 C38.2696821,10.03356 37.2864875,10.26576 36.652372,10.73106 C36.0182566,11.19636 35.5501116,12.01986 35.2461331,13.20246 L32.4769519,12.82626 C32.7277116,11.64366 33.1426378,10.68786 33.7190244,9.96156 C34.296313,9.23436 35.1288714,8.67456 36.2203076,8.28306 C37.3090378,7.88976 38.5736606,7.69536 40.010568,7.69536 Z M55.935615,2.25081 L55.935615,8.07201 L58.7823693,8.07201 L58.7823693,10.26891 L55.935615,10.26891 L55.935615,20.01231 C55.935615,20.81691 55.9861277,21.33441 56.0853492,21.56481 C56.1845707,21.79611 56.3478351,21.97701 56.5733385,22.11471 C56.7970378,22.24971 57.1208606,22.31901 57.5393949,22.31901 C57.8541975,22.31901 58.2673197,22.28301 58.7823693,22.20831 L59.1909814,24.70401 C58.3945036,24.87051 57.681913,24.95511 57.0523076,24.95511 C56.0249143,24.95511 55.2284365,24.79131 54.661972,24.46821 C54.0973116,24.14331 53.6968177,23.71761 53.4659022,23.18931 C53.2358888,22.66191 53.1195291,21.54951 53.1195291,19.85661 L53.1195291,10.26891 L51.0448982,10.26891 L51.0448982,8.07201 L53.1195291,8.07201 L53.1195291,3.94371 L55.935615,2.25081 Z M23.1557256,7.69545 C24.8118222,7.69545 26.0863672,8.15175 26.9775565,9.06795 C27.8687457,9.98235 28.3143404,11.39265 28.3143404,13.29615 L28.3143404,24.73515 L25.4991565,24.73515 L25.4991565,14.23845 C25.4991565,13.10805 25.4071511,12.29535 25.2240424,11.79765 C25.0400316,11.30175 24.7062867,10.89945 24.2264155,10.59705 C23.7420343,10.29465 23.1764719,10.14255 22.5261202,10.14255 C21.3535028,10.14255 20.3766222,10.53135 19.6017927,11.31165 C18.8269632,12.09015 18.4381954,13.33845 18.4381954,15.05385 L18.4381954,24.73515 L15.6076773,24.73515 L15.6076773,13.90725 C15.6076773,12.65265 15.3758598,11.71125 14.914931,11.08485 C14.4531001,10.45665 13.6990169,10.14255 12.6508773,10.14255 C11.8543994,10.14255 11.1192585,10.35225 10.4418464,10.76985 C9.76533633,11.18835 9.27464103,11.80125 8.9706625,12.60675 C8.66578197,13.41135 8.51514572,14.57235 8.51514572,16.08975 L8.51514572,24.73515 L5.68372559,24.73515 L5.68372559,8.07255 L8.21567727,8.07255 L8.21567727,10.40985 C8.74064908,9.59265 9.43700344,8.93745 10.3083484,8.43975 C11.1787914,7.94295 12.1683001,7.69545 13.2804826,7.69545 C14.516241,7.69545 15.5319081,7.95195 16.3247779,8.46315 C17.1140397,8.97705 17.673288,9.69255 17.9980128,10.61325 C19.3185605,8.66745 21.0387001,7.69545 23.1557256,7.69545 Z M66.2330904,8.07255 L66.2330904,24.73515 L63.4025723,24.73515 L63.4025723,8.07255 L66.2330904,8.07255 Z M85.0987012,8.07255 L85.0987012,24.73515 L82.268183,24.73515 L82.268183,8.07255 L85.0987012,8.07255 Z M96.3863167,7.22934 C98.1993637,7.22934 99.6849798,7.68654 100.835949,8.60184 C101.990526,9.51714 102.729275,10.81764 103.054,12.50154 L100.301055,12.92454 C100.040373,11.80674 99.5767382,10.96434 98.9101503,10.39734 C98.2444644,9.83484 97.4389664,9.55134 96.4954604,9.55134 C95.0702791,9.55134 93.9120939,10.06164 93.0200026,11.08044 C92.1279114,12.10014 91.6841208,13.71474 91.6841208,15.92154 C91.6841208,18.15984 92.1143812,19.78614 92.9730979,20.80134 C93.8336187,21.81654 94.9557234,22.32414 96.33851,22.32414 C97.4515946,22.32414 98.3770604,21.98484 99.1230255,21.30264 C99.8680885,20.62494 100.339842,19.57644 100.537383,18.16524 L103.320094,18.52614 C103.015213,20.43954 102.23858,21.93804 100.983879,23.02164 C99.7327865,24.10434 98.1948536,24.64614 96.3700805,24.64614 C94.0843785,24.64614 92.2478791,23.90094 90.8587785,22.40964 C89.4678738,20.92014 88.7751275,18.78354 88.7751275,15.99984 C88.7751275,14.20074 89.0736939,12.62574 89.6699248,11.27664 C90.2697637,9.92754 91.1780912,8.91504 92.3985154,8.24094 C93.6198416,7.56594 94.9512134,7.22934 96.3863167,7.22934 Z" id="Fill-69" fill="#162736"></path>
            </g>
        </g>
    </g>
</svg>