<?xml version="1.0" encoding="UTF-8"?> <svg xmlns="http://www.w3.org/2000/svg" width="125" height="44" viewBox="0 0 125 44" fill="none"><g id="Full Logo"><g id="Type"><g id="type"><path d="M47.9436 24.1352C47.2456 23.8816 46.6297 23.4513 46.1593 22.8886C45.653 22.1783 45.3979 21.3267 45.4326 20.4627H48.1315C48.1612 21.0533 48.3791 21.6202 48.7548 22.0846C49.25 22.4856 49.8761 22.7009 50.52 22.6917C51.115 22.6926 51.6961 22.5164 52.1853 22.1866C52.353 22.0519 52.4869 21.8817 52.5767 21.6889C52.6666 21.4962 52.7101 21.286 52.7039 21.0744C52.7043 20.9029 52.6676 20.7332 52.596 20.5765C52.5245 20.4198 52.4198 20.2795 52.2888 20.1649C52.0223 19.9282 51.7172 19.7363 51.386 19.5972C50.9186 19.4229 50.4421 19.2724 49.9586 19.1466C49.2755 18.9606 48.6065 18.7284 47.9567 18.4515C47.341 18.2229 46.7834 17.8672 46.3223 17.4088C45.9292 16.866 45.7344 16.2104 45.7692 15.547C45.7532 14.871 45.9491 14.2062 46.3307 13.6412C46.7876 13.0316 47.4117 12.5597 48.1315 12.28C48.857 11.9964 49.6338 11.8588 50.4153 11.8756C51.6035 11.8335 52.7703 12.192 53.7186 12.8905C54.1325 13.2617 54.4596 13.7153 54.6777 14.2204C54.8959 14.7255 55 15.2704 54.983 15.8181H52.3875C52.4087 15.2682 52.2244 14.7294 51.8689 14.3016C51.6562 14.1218 51.4093 13.9847 51.1421 13.898C50.8749 13.8113 50.5928 13.7768 50.3119 13.7965C49.7965 13.785 49.2897 13.926 48.8583 14.2008C48.6882 14.3453 48.5515 14.5232 48.4571 14.7229C48.3628 14.9226 48.3131 15.1395 48.3111 15.3593C48.3066 15.5111 48.334 15.6622 48.3917 15.8033C48.4494 15.9443 48.5361 16.0724 48.6466 16.1796C49.0321 16.443 49.4522 16.655 49.8955 16.8098C50.2278 16.945 50.6961 17.0995 51.3003 17.2732C51.9874 17.4609 52.6596 17.6967 53.3117 17.9788C53.8711 18.2181 54.3658 18.5806 54.757 19.0377C55.1531 19.5764 55.3509 20.2295 55.3184 20.8913C55.3216 21.5387 55.1395 22.1742 54.7927 22.7264C54.4212 23.3096 53.8869 23.7778 53.2523 24.0761C52.4641 24.4275 51.6042 24.5994 50.7377 24.5789C49.787 24.5887 48.8418 24.4386 47.9436 24.1352Z" fill="#1226AA"></path><path fill-rule="evenodd" clip-rule="evenodd" d="M111.767 24.3043H109.276L113.636 12.273H117.165L121.629 24.3043H119.034L118.03 21.5343H112.771L111.767 24.3043ZM117.312 19.5521L115.4 14.2772L113.489 19.5521H117.312Z" fill="#1226AA"></path><path fill-rule="evenodd" clip-rule="evenodd" d="M60.7057 33.0026C60.3435 32.3644 59.8 31.8414 59.1403 31.4965C58.4209 31.1414 57.6252 30.9578 56.8188 30.9606C56.0123 30.9634 55.2181 31.1527 54.5013 31.5127C53.8257 31.8762 53.2742 32.4243 52.9145 33.0895C52.5241 33.8248 52.3294 34.6438 52.3483 35.4714C52.3308 36.2947 52.5284 37.1088 52.9228 37.8371C53.2898 38.5045 53.8465 39.0548 54.5263 39.422C55.2377 39.8015 56.0383 39.9943 56.8493 39.9816C57.8186 40.0125 58.7706 39.7271 59.5542 39.1706C60.2691 38.6556 60.792 37.9275 61.0435 37.0968H58.5931C58.4387 37.4295 58.1841 37.7086 57.8631 37.8973C57.5422 38.086 57.17 38.1753 56.7958 38.1534C56.2438 38.1688 55.7081 37.97 55.3066 37.6008C54.8953 37.2031 54.6579 36.6659 54.644 36.1016H61.1387C61.1551 36.1003 61.1711 36.0952 61.1851 36.0866C61.1851 36.0866 61.2029 36.0727 61.2041 36.0657C61.246 35.8016 61.2663 35.5347 61.2647 35.2675C61.2828 34.4781 61.0902 33.6977 60.7057 33.0026ZM56.7804 32.7709C57.3356 32.7535 57.8769 32.9424 58.2946 33.2991C58.4788 33.4626 58.6279 33.66 58.7333 33.8799C58.8386 34.0999 58.8981 34.338 58.9084 34.5805H54.6678C54.7378 34.0923 54.974 33.641 55.3387 33.2991C55.7293 32.9462 56.2465 32.7565 56.7791 32.7709H56.7804Z" fill="#1226AA"></path><path fill-rule="evenodd" clip-rule="evenodd" d="M111.273 31.3864H108.913V31.9217C108.268 31.3625 107.433 31.0556 106.569 31.0597C105.812 31.0374 105.064 31.2307 104.418 31.6159C103.779 32.0075 103.26 32.5593 102.915 33.2135C102.555 33.9229 102.368 34.7034 102.368 35.4946C102.368 36.2858 102.555 37.0663 102.915 37.7757C103.26 38.4298 103.779 38.9816 104.418 39.3733C105.06 39.7752 105.806 39.9883 106.569 39.9874C107.037 39.9803 107.496 39.8655 107.91 39.6522C108.323 39.439 108.679 39.1334 108.948 38.7605V39.8727C108.954 40.1952 108.893 40.5156 108.768 40.8145C108.576 41.1365 108.29 41.3961 107.947 41.5609C107.605 41.7257 107.219 41.7885 106.84 41.7414C106.293 41.7754 105.752 41.6176 105.314 41.2965C105.082 41.0868 104.938 40.8007 104.911 40.4937H102.471C102.535 41.2588 102.892 41.9725 103.471 42.4933C104.425 43.2294 105.628 43.5891 106.841 43.5012C108.876 43.5012 110.244 42.8686 110.858 41.5317C111.158 40.8763 111.302 40.1634 111.279 39.4463L111.273 31.3864ZM108.491 37.1293C108.291 37.3406 108.046 37.5073 107.773 37.6177C107.5 37.7281 107.207 37.7796 106.911 37.7688C106.518 37.7742 106.131 37.6723 105.793 37.4745C105.466 37.2833 105.199 37.0084 105.021 36.6798C104.831 36.3161 104.736 35.912 104.747 35.5039C104.738 35.1014 104.832 34.7032 105.021 34.3453C105.2 34.0098 105.472 33.7299 105.806 33.5374C106.141 33.3449 106.523 33.2475 106.911 33.2563C107.31 33.2465 107.703 33.3452 108.047 33.5413C108.372 33.7368 108.636 34.0148 108.811 34.3453C109.005 34.7082 109.102 35.1123 109.095 35.5212C109.115 36.1134 108.899 36.6899 108.491 37.1293Z" fill="#1226AA"></path><path d="M69.2355 20.7361V15.8459L66.8922 15.8367V21.2458C66.8905 21.8269 67.0368 22.3993 67.318 22.9118C67.5979 23.3972 67.9973 23.8072 68.4802 24.1051C68.9869 24.4167 69.576 24.5778 70.1752 24.5685C70.7849 24.5785 71.387 24.4357 71.9237 24.1537C72.1827 23.9886 72.4182 23.7933 72.6255 23.5731V24.3043H74.9867V15.8459H72.6255V20.9166C72.606 21.1875 72.5424 21.4543 72.4364 21.7069C72.2957 21.9593 72.0829 22.1665 71.8238 22.3036C71.5509 22.4449 71.2455 22.5162 70.9365 22.5109C70.7106 22.5191 70.4854 22.4822 70.2747 22.4025C70.064 22.3228 69.8723 22.202 69.7113 22.0475C69.3866 21.6856 69.2164 21.2163 69.2355 20.7361Z" fill="#1226AA"></path><path d="M84.7916 34.913V39.8031L87.1349 39.8124V34.4032C87.1365 33.8221 86.9902 33.2498 86.7091 32.7373C86.4292 32.2519 86.0298 31.8418 85.5469 31.544C85.0402 31.2323 84.4511 31.0713 83.8519 31.0806C83.2422 31.0706 82.6401 31.2135 82.1033 31.4953C81.8443 31.6605 81.6088 31.8558 81.4016 32.076V31.3447H79.0404V39.8031H81.4016V34.7328C81.421 34.4618 81.4846 34.1949 81.5906 33.9421C81.7313 33.6897 81.9441 33.4824 82.2032 33.3455C82.4762 33.2042 82.7816 33.1328 83.0906 33.1381C83.3165 33.13 83.5416 33.1668 83.7523 33.2465C83.963 33.3262 84.1548 33.447 84.3158 33.6015C84.6403 33.9636 84.8106 34.4327 84.7916 34.913Z" fill="#1226AA"></path><path d="M98.805 34.9118V39.802L101.144 39.8124V34.4032C101.145 33.8222 100.999 33.2498 100.718 32.7373C100.438 32.2519 100.038 31.8418 99.5555 31.544C99.0488 31.2323 98.4598 31.0713 97.8605 31.0806C97.2508 31.0706 96.6487 31.2134 96.1119 31.4953C95.8549 31.6591 95.6211 31.8527 95.415 32.0708V31.3447H93.0538V39.8031H95.415V34.5788C95.45 34.3598 95.5134 34.1455 95.604 33.941C95.7447 33.6886 95.9575 33.4813 96.2166 33.3443C96.4896 33.203 96.795 33.1317 97.104 33.137C97.3298 33.1292 97.5549 33.1663 97.7655 33.246C97.9761 33.3256 98.1679 33.4462 98.3292 33.6004C98.6537 33.9624 98.824 34.4316 98.805 34.9118Z" fill="#1226AA"></path><path d="M123.176 14.5632C123.338 14.6272 123.512 14.6577 123.687 14.6526C123.863 14.6593 124.039 14.6296 124.202 14.5655C124.366 14.5014 124.514 14.4044 124.636 14.2807C124.87 14.0284 125 13.7004 125 13.3603C125 13.0202 124.87 12.6922 124.636 12.4398C124.385 12.1964 124.045 12.0597 123.691 12.0597C123.337 12.0597 122.997 12.1964 122.746 12.4398C122.507 12.6897 122.374 13.0186 122.374 13.3603C122.374 13.7019 122.507 14.0309 122.746 14.2807C122.868 14.403 123.014 14.4992 123.176 14.5632Z" fill="#1226AA"></path><path d="M124.763 15.8459H122.402V24.3043H124.763V15.8459Z" fill="#1226AA"></path><path d="M102.977 12.229H105.338V24.3043H102.977V12.229Z" fill="#1226AA"></path><path d="M48.3492 27.7417H46.0166V39.817L52.0807 39.8182V37.6854H48.3492V27.7417Z" fill="#1226AA"></path><path d="M77.9093 14.6526C77.7345 14.6576 77.5606 14.6271 77.3986 14.5631C77.2366 14.4991 77.0901 14.4029 76.9684 14.2807C76.7291 14.0309 76.5961 13.7019 76.5961 13.3603C76.5961 13.0186 76.7291 12.6897 76.9684 12.4398C77.2194 12.1964 77.5592 12.0597 77.9134 12.0597C78.2676 12.0597 78.6074 12.1964 78.8584 12.4398C79.0926 12.6922 79.2222 13.0202 79.2222 13.3603C79.2222 13.7004 79.0926 14.0284 78.8584 14.2807C78.7361 14.4044 78.5882 14.5014 78.4247 14.5655C78.2611 14.6296 78.0855 14.6593 77.9093 14.6526Z" fill="#1226AA"></path><path d="M79.0904 15.8459H76.7293V24.3043H79.0904V15.8459Z" fill="#1226AA"></path><path d="M88.9109 31.3447H91.272V39.8032H88.9109V31.3447Z" fill="#1226AA"></path><path d="M90.0944 30.2731C89.9197 30.2781 89.7458 30.2476 89.5838 30.1836C89.4218 30.1195 89.2752 30.0234 89.1535 29.9012C88.914 29.6515 88.7808 29.3225 88.7808 28.9808C88.7808 28.639 88.914 28.31 89.1535 28.0603C89.4045 27.8168 89.7444 27.6802 90.0986 27.6802C90.4528 27.6802 90.7926 27.8168 91.0436 28.0603C91.2778 28.3126 91.4074 28.6406 91.4074 28.9808C91.4074 29.3209 91.2778 29.6489 91.0436 29.9012C90.9212 30.0248 90.7734 30.1218 90.6098 30.1859C90.4462 30.2499 90.2706 30.2796 90.0944 30.2731Z" fill="#1226AA"></path><path d="M77.214 31.2325C77.4074 31.3049 77.5824 31.4171 77.7272 31.5614V31.5672C77.9843 31.844 78.1267 32.2041 78.1267 32.5774C78.1267 32.9507 77.9843 33.3108 77.7272 33.5877C77.4487 33.8493 77.077 33.9955 76.69 33.9955C76.3031 33.9955 75.9313 33.8493 75.6528 33.5877C75.5828 33.5169 75.5206 33.4393 75.4672 33.3559C75.2876 33.4139 75.1853 33.7058 75.1853 34.109V39.802H72.8242V31.3447H75.1853V32.0225C75.3111 31.7587 75.5118 31.5356 75.7637 31.3796C76.0157 31.2235 76.3082 31.1411 76.6068 31.142C76.8135 31.1293 77.0206 31.1601 77.214 31.2325Z" fill="#1226AA"></path><path d="M85.8241 16.0637C85.6793 15.9194 85.5043 15.8072 85.3109 15.7348C85.1175 15.6624 84.9104 15.6316 84.7036 15.6443C84.4051 15.6434 84.1125 15.7259 83.8606 15.8819C83.6087 16.038 83.4079 16.2611 83.2822 16.5248V15.8471H80.9211V24.3043H83.2822V18.6113C83.2822 18.2082 83.3845 17.9162 83.5641 17.8583C83.6176 17.9415 83.6797 18.0192 83.7497 18.09C84.0281 18.3516 84.4 18.4978 84.7869 18.4978C85.1738 18.4978 85.5456 18.3516 85.8241 18.09C86.0812 17.8131 86.2236 17.4531 86.2236 17.0797C86.2236 16.7064 86.0812 16.3464 85.8241 16.0695V16.0637Z" fill="#1226AA"></path><path d="M91.539 15.7348C91.7324 15.8072 91.9075 15.9194 92.0523 16.0637V16.0695C92.3094 16.3464 92.4518 16.7064 92.4518 17.0797C92.4518 17.4531 92.3094 17.8131 92.0523 18.09C91.7738 18.3516 91.402 18.4978 91.0151 18.4978C90.6282 18.4978 90.2563 18.3516 89.9778 18.09C89.9079 18.0192 89.8457 17.9416 89.7923 17.8583C89.6127 17.9162 89.5104 18.2082 89.5104 18.6113V24.3043H87.1492V15.8471H89.5104V16.5248C89.6361 16.2611 89.8368 16.038 90.0888 15.8819C90.3407 15.7259 90.6333 15.6434 90.9318 15.6443C91.1386 15.6316 91.3457 15.6624 91.539 15.7348Z" fill="#1226AA"></path><path fill-rule="evenodd" clip-rule="evenodd" d="M68.6586 31.3343V31.8707C68.013 31.3115 67.178 31.0045 66.3141 31.0087C65.5569 30.9863 64.8095 31.1796 64.1634 31.5648C63.5244 31.9566 63.0051 32.5083 62.66 33.1624C62.3003 33.8718 62.1132 34.6524 62.1132 35.4436C62.1132 36.2348 62.3003 37.0153 62.66 37.7247C63.0052 38.3788 63.5244 38.9305 64.1634 39.3224C64.8048 39.7242 65.5515 39.9373 66.3141 39.9364C67.1868 39.9227 68.0229 39.5922 68.6586 39.0095V39.7973H71.0209V31.3285L68.6586 31.3343ZM66.6566 37.7166C66.2691 37.7225 65.8875 37.6238 65.554 37.4317C65.2204 37.2395 64.9479 36.9612 64.7665 36.6276C64.5761 36.2639 64.4816 35.8598 64.4917 35.4517C64.4829 35.0493 64.5774 34.6511 64.7665 34.2932C64.9455 33.9577 65.2175 33.6778 65.5516 33.4853C65.8857 33.2928 66.2685 33.1954 66.6566 33.2042C67.0551 33.1943 67.4486 33.293 67.7926 33.4892C68.1174 33.6847 68.3814 33.9626 68.5563 34.2932C68.75 34.656 68.8476 35.0602 68.8405 35.4691C68.861 36.0609 68.6448 36.6374 68.2375 37.0771C68.0371 37.2886 67.792 37.4554 67.519 37.5658C67.2461 37.6762 66.9519 37.7276 66.6566 37.7166Z" fill="#1226AA"></path><path fill-rule="evenodd" clip-rule="evenodd" d="M62.7385 15.8656H65.0996V27.766H62.7385V23.5409C62.1029 24.1235 61.2668 24.454 60.394 24.4677C59.6314 24.4687 58.8847 24.2555 58.2434 23.8537C57.6045 23.4618 57.0852 22.9101 56.7399 22.2561C56.3802 21.5467 56.1931 20.7661 56.1931 19.9749C56.1931 19.1837 56.3802 18.4032 56.7399 17.6938C57.0851 17.0397 57.6044 16.4879 58.2434 16.0962C58.8895 15.7109 59.6369 15.5176 60.394 15.5401C61.2579 15.5358 62.093 15.8428 62.7385 16.402V15.8656ZM61.5995 22.0968C61.8722 21.9864 62.1172 21.8198 62.3174 21.6084H62.3162C62.7246 21.1688 62.9418 20.5918 62.9217 19.9992C62.9287 19.5904 62.831 19.1862 62.6374 18.8233C62.4624 18.4928 62.1985 18.2149 61.8738 18.0193C61.5297 17.8232 61.1363 17.7245 60.7378 17.7343C60.3497 17.7255 59.9668 17.8229 59.6327 18.0154C59.2986 18.2079 59.0267 18.4878 58.8477 18.8233C58.6585 19.1812 58.564 19.5794 58.5729 19.9819C58.5627 20.39 58.6571 20.7942 58.8477 21.1578C59.0255 21.4868 59.2925 21.7621 59.6197 21.9537C59.9569 22.1514 60.3442 22.2533 60.7378 22.2479C61.0329 22.2588 61.3269 22.2072 61.5995 22.0968Z" fill="#1226AA"></path><path fill-rule="evenodd" clip-rule="evenodd" d="M101.189 17.4342C100.826 16.7922 100.281 16.2662 99.6175 15.9201C98.8981 15.565 98.1024 15.3814 97.2959 15.3842C96.4895 15.387 95.6952 15.5762 94.9784 15.9363C94.3029 16.2999 93.7514 16.848 93.3917 17.513C93.0013 18.2484 92.8066 19.0674 92.8255 19.895C92.808 20.7182 93.0058 21.5323 93.4 22.2607C93.767 22.9281 94.3237 23.4783 95.0034 23.8456C95.7149 24.2251 96.5154 24.418 97.3265 24.4051C98.2957 24.4361 99.2478 24.1507 100.031 23.5942C100.746 23.0791 101.269 22.3511 101.521 21.5204H99.0762C98.9218 21.8531 98.6672 22.1322 98.3462 22.3209C98.0253 22.5095 97.6531 22.5989 97.2789 22.577C96.7266 22.5925 96.1905 22.3937 95.7885 22.0244C95.3774 21.6266 95.14 21.0895 95.126 20.5252H101.621C101.637 20.5239 101.653 20.5187 101.667 20.5101C101.667 20.5101 101.685 20.4963 101.686 20.4893C101.728 20.2252 101.748 19.9583 101.747 19.6911C101.764 18.9045 101.571 18.1271 101.189 17.4342ZM97.2635 17.2025C97.8187 17.1852 98.3601 17.374 98.7777 17.7308C98.9619 17.8943 99.111 18.0917 99.2164 18.3116C99.3217 18.5316 99.3813 18.7697 99.3915 19.0122H95.1509C95.2209 18.5239 95.4571 18.0727 95.8218 17.7308C96.2117 17.3763 96.729 17.1849 97.2622 17.1979L97.2635 17.2025Z" fill="#1226AA"></path></g></g><g id="Squirrel"><g id="squirrel"><path d="M22.3938 25.212C22.6222 25.1923 22.847 25.1807 23.0849 25.1807L23.0861 25.1853C24.8517 25.185 26.5645 25.7722 27.9406 26.8498C29.3166 27.9274 30.2733 29.4306 30.6521 31.1102C31.0309 32.7899 30.809 34.5452 30.0233 36.0852C29.2376 37.6253 27.9352 38.8576 26.3319 39.578C24.7286 40.2983 22.9207 40.4635 21.2079 40.0461C19.495 39.6287 17.98 38.6538 16.9139 37.283C15.8478 35.9121 15.2947 34.2276 15.3462 32.5086C15.3976 30.7897 16.0506 29.1394 17.1969 27.8314L17.2112 27.8117C17.434 27.5499 17.6632 27.3297 17.9112 27.0914C18.0935 26.9162 18.2859 26.7313 18.4934 26.513C19.0842 25.9263 19.6002 25.2725 20.0303 24.5655C20.5651 23.7392 20.9355 22.8223 21.1222 21.8626C21.5094 20.1552 21.3913 18.3757 20.7816 16.731C20.1718 15.0863 19.0955 13.6438 17.6777 12.5711C16.2598 11.4984 14.5586 10.8395 12.7715 10.671C10.9845 10.5024 9.1851 10.8311 7.58224 11.6189C8.75537 11.2485 10.0018 11.1536 11.2198 11.3421C12.4378 11.5305 13.5927 11.9968 14.5903 12.7031C15.5878 13.4093 16.3997 14.3353 16.9596 15.4055C17.5195 16.4757 17.8116 17.6598 17.8119 18.8609C17.8059 19.8458 17.5974 20.8196 17.1987 21.7248C16.8 22.63 16.2193 23.4482 15.4906 24.1312C14.762 24.8142 13.9003 25.3482 12.9563 25.7015C12.0123 26.0549 11.0053 26.2205 9.99453 26.1886C8.57885 26.1241 7.19538 25.7552 5.94336 25.1084C4.69134 24.4617 3.6018 23.553 2.75291 22.4477C-0.477744 18.6848 -0.745385 12.7369 1.32552 8.41327C2.22915 6.5216 3.56486 4.85617 5.23054 3.54428C6.89623 2.23238 8.84781 1.30874 10.9361 0.843945C13.0244 0.379154 15.1942 0.385516 17.2796 0.862542C19.365 1.33957 21.3109 2.27464 22.9684 3.59628C24.626 4.91791 25.9513 6.59114 26.8433 8.48808C27.7352 10.385 28.1701 12.4554 28.1146 14.5411C28.0592 16.6268 27.5149 18.6726 26.5234 20.522C25.5318 22.3715 24.1193 23.9756 22.3938 25.212Z" fill="#1226AA"></path><path d="M31.0582 22.7375C30.8413 22.8786 30.5862 22.954 30.3253 22.954C29.9755 22.954 29.6399 22.8186 29.3926 22.5777C29.1452 22.3368 29.0062 22.01 29.0062 21.6692C29.0062 21.4151 29.0835 21.1667 29.2285 20.9554C29.3734 20.7441 29.5795 20.5794 29.8205 20.4822C30.0615 20.3849 30.3268 20.3595 30.5827 20.4091C30.8386 20.4586 31.0736 20.581 31.2581 20.7607C31.4426 20.9404 31.5682 21.1693 31.6191 21.4185C31.67 21.6678 31.6439 21.9261 31.544 22.1609C31.4442 22.3956 31.2751 22.5963 31.0582 22.7375Z" fill="#1226AA"></path><path d="M30.8249 36.8375C31.1414 36.6315 31.5135 36.5215 31.8942 36.5215C32.1469 36.5214 32.3972 36.5697 32.6307 36.6638C32.8642 36.7579 33.0763 36.8958 33.2551 37.0698C33.4338 37.2438 33.5756 37.4504 33.6723 37.6777C33.7691 37.9051 33.8189 38.1488 33.8189 38.3949C33.8191 38.7657 33.7064 39.1282 33.4951 39.4366C33.2838 39.745 32.9832 39.9855 32.6316 40.1275C32.2799 40.2696 31.8929 40.3069 31.5195 40.2347C31.1461 40.1625 30.8031 39.984 30.5338 39.7219C30.2645 39.4598 30.0811 39.1258 30.0067 38.7621C29.9324 38.3985 29.9704 38.0215 30.116 37.679C30.2617 37.3364 30.5084 37.0436 30.8249 36.8375Z" fill="#1226AA"></path><path fill-rule="evenodd" clip-rule="evenodd" d="M33.3859 22.457C32.64 22.457 31.911 22.6724 31.2909 23.076C30.6707 23.4796 30.1875 24.0532 29.9021 24.7244C29.6168 25.3955 29.5421 26.134 29.6877 26.8464C29.8333 27.5589 30.1926 28.2132 30.72 28.7268C31.2475 29.2404 31.9195 29.59 32.651 29.7316C33.3825 29.8732 34.1407 29.8003 34.8297 29.5222C35.5187 29.244 36.1075 28.7731 36.5217 28.169C36.9359 27.5649 37.1568 26.8548 37.1566 26.1284C37.1566 25.6461 37.059 25.1686 36.8695 24.7231C36.68 24.2776 36.4022 23.8728 36.0521 23.5319C35.7019 23.1909 35.2862 22.9205 34.8288 22.7361C34.3713 22.5517 33.881 22.4568 33.3859 22.457ZM34.9227 26.1272C34.7245 26.1274 34.5307 26.0704 34.3658 25.9633C34.2009 25.8562 34.0724 25.7038 33.9964 25.5255C33.9205 25.3473 33.9005 25.151 33.9392 24.9617C33.9778 24.7724 34.0732 24.5984 34.2133 24.4619C34.3534 24.3255 34.532 24.2325 34.7264 24.1949C34.9208 24.1573 35.1223 24.1767 35.3053 24.2507C35.4884 24.3247 35.6448 24.4499 35.7548 24.6105C35.8647 24.7711 35.9233 24.9598 35.923 25.1529C35.923 25.4113 35.8177 25.6591 35.6301 25.8418C35.4425 26.0246 35.188 26.1272 34.9227 26.1272Z" fill="#1226AA"></path></g></g></g></svg> 