<svg width="380" height="50" xmlns="http://www.w3.org/2000/svg"><defs><clipPath clipPathUnits="userSpaceOnUse" id="prefix__a"><path d="M0 792h612V0H0z" transform="translate(-341.988 -397.248)"/></clipPath><clipPath clipPathUnits="userSpaceOnUse" id="prefix__b"><path d="M0 792h612V0H0z" transform="translate(-361.732 -393.58)"/></clipPath><clipPath clipPathUnits="userSpaceOnUse" id="prefix__c"><path d="M0 792h612V0H0z" transform="translate(-388.588 -397.173)"/></clipPath><clipPath clipPathUnits="userSpaceOnUse" id="prefix__d"><path d="M0 792h612V0H0z" transform="translate(-418.887 -397.929)"/></clipPath><clipPath clipPathUnits="userSpaceOnUse" id="prefix__e"><path d="M0 792h612V0H0z" transform="translate(-435.906 -387.602)"/></clipPath><clipPath clipPathUnits="userSpaceOnUse" id="prefix__f"><path d="M0 792h612V0H0z" transform="translate(-319.52 -410.072)"/></clipPath><clipPath clipPathUnits="userSpaceOnUse" id="prefix__g"><path d="M0 792h612V0H0z" transform="translate(-316.851 -391.082)"/></clipPath><clipPath clipPathUnits="userSpaceOnUse" id="prefix__h"><path d="M0 792h612V0H0z" transform="translate(-267.853 -410.072)"/></clipPath><clipPath clipPathUnits="userSpaceOnUse" id="prefix__i"><path d="M0 792h612V0H0z" transform="translate(-291.682 -409.702)"/></clipPath><clipPath clipPathUnits="userSpaceOnUse" id="prefix__j"><path d="M0 792h612V0H0z" transform="translate(-178.424 -398.75)"/></clipPath><clipPath clipPathUnits="userSpaceOnUse" id="prefix__k"><path d="M0 792h612V0H0z" transform="translate(-184.356 -379.135)"/></clipPath><clipPath clipPathUnits="userSpaceOnUse" id="prefix__l"><path d="M0 792h612V0H0z" transform="translate(-183.028 -384.704)"/></clipPath></defs><path d="M57.836 13.702h10.137v30.06h9.03v-30.06H87.19V6.237H57.836zm56.536 6.809h-12.356V6.237h-9.028v37.525h9.028V28.33h12.356v15.433h8.927V6.238h-8.927zm17.65 23.252h9.028V20.056h-9.028z" fill="#0057c2"/><path d="M0 0c-.794-3.026-1.4-5.939-2.194-9.003h-.189C-3.215-5.939-3.745-3.026-4.577 0l-3.215 12.824h-7.149l8.435-28.144h8.095l8.473 28.144H3.178z" transform="matrix(1.33333 0 0 -1.33333 237.982 23.336)" clip-path="url(#prefix__a)" fill="#0057c2"/><path d="M0 0h9.419v5.674H0v5.22h11.083v5.599H-6.771v-28.144H11.5v5.674H0z" transform="matrix(1.33333 0 0 -1.33333 264.31 28.228)" clip-path="url(#prefix__b)" fill="#0057c2"/><path d="M0 0h-3.027v7.565H0c3.215 0 4.917-.87 4.917-3.518C4.917 1.399 3.215 0 0 0m11.537 4.047c0 6.809-4.993 8.852-11.008 8.852H-9.797v-28.144h6.77v9.911H.226l5.183-9.911h7.565L6.695-4.086c2.913 1.362 4.842 4.01 4.842 8.133" transform="matrix(1.33333 0 0 -1.33333 300.116 23.436)" clip-path="url(#prefix__c)" fill="#0057c2"/><path d="M0 0l-3.519 1.4c-2.496.983-4.274 1.588-4.274 3.139 0 1.513 1.286 2.346 3.367 2.346 2.194 0 3.934-.757 5.788-2.156l3.366 4.236c-2.459 2.459-5.901 3.707-9.154 3.707-5.977 0-10.213-3.783-10.213-8.511 0-4.085 2.761-6.544 5.711-7.717l3.594-1.513C-2.913-6.09-1.362-6.62-1.362-8.246c0-1.513-1.173-2.459-3.669-2.459-2.232 0-4.842 1.173-6.847 2.875l-3.821-4.653c2.913-2.686 6.847-4.048 10.516-4.048 6.809 0 10.743 4.124 10.743 8.814C5.56-3.745 3.48-1.4 0 0" transform="matrix(1.33333 0 0 -1.33333 340.514 22.428)" clip-path="url(#prefix__d)" fill="#0057c2"/><path d="M0 0v5.977h9.419v5.674H0v5.22h11.083v5.599H-6.771V-5.674H11.5V0z" transform="matrix(1.33333 0 0 -1.33333 363.208 36.197)" clip-path="url(#prefix__e)" fill="#0057c2"/><path d="M0 0l-8.095-10.767V0h-6.771v-28.144h6.771v7.377l3.092 4.111 3.97 5.277L7.526 0h-.111z" transform="matrix(1.33333 0 0 -1.33333 208.026 6.237)" clip-path="url(#prefix__f)" fill="#0057c2"/><path d="M0 0l-.564-.75 4.822-8.404h7.415L3.448 4.584z" transform="matrix(1.33333 0 0 -1.33333 204.467 31.557)" clip-path="url(#prefix__g)" fill="#3b8ede"/><path d="M0 0h-3.899a1.44 1.44 0 01-1.436-1.436v-3.899c0-.79.646-1.436 1.436-1.436H0c.79 0 1.436.646 1.436 1.436v3.899A1.44 1.44 0 010 0" transform="matrix(1.33333 0 0 -1.33333 139.136 6.237)" clip-path="url(#prefix__h)" fill="#3b8ede"/><path d="M0 0v-17.714l-2.043 4.617L-9.041.37h-6.884v-28.144h6.43v18.225l2.081-4.645 6.96-13.58h6.885V.37H0z" transform="matrix(1.33333 0 0 -1.33333 170.908 6.73)" clip-path="url(#prefix__i)" fill="#0057c2"/><path d="M0 0c0 .614-.432 1.112-.966 1.112h-5.342a.896.896 0 00-.639.278l-2.65 3.654a1.03 1.03 0 00-.196.276c-.139.286-.213.768.829.804 1.489.052 11.458 0 11.458 0s2.916.015 5.829.021l2.853 4.942-5.244 3.028a6.877 6.877 0 01-6.876 0l-9.448-5.455a6.874 6.874 0 01-3.438-5.955v-10.91a6.874 6.874 0 013.438-5.954l5.244-3.028L0-8.271z" transform="matrix(1.33333 0 0 -1.33333 19.898 21.334)" clip-path="url(#prefix__j)" fill="#3b8ede"/><path d="M0 0l9.448 5.455a6.874 6.874 0 013.438 5.955v10.91a6.874 6.874 0 01-3.438 5.954l-4.203 2.427-2.854-4.942c2.474.005 4.945.003 5.629-.021 1.042-.036.968-.518.829-.803a1.02 1.02 0 00-.196-.277l-2.65-3.654a.896.896 0 00-.639-.278H.022c-.534 0-.966-.498-.966-1.112V6.456c0-.349-.142-.678-.384-.888l-1.468-1.275a.976.976 0 00-.642-.247.976.976 0 00-.642.247l-1.468 1.275c-.242.21-.384.539-.384.888v4.887l-5.148-8.916L-6.876 0A6.877 6.877 0 010 0" transform="matrix(1.33333 0 0 -1.33333 27.807 47.486)" clip-path="url(#prefix__k)" fill="#0057c2"/><path d="M0 0c.242.21.384.539.384.887v13.159c0 .614.432 1.112.966 1.112h5.342c.236 0 .463.099.639.278l2.65 3.654c.078.079.146.172.196.276.139.286.213.768-.829.804-1.489.052-11.458 0-11.458 0s-9.969.052-11.458 0c-1.042-.036-.968-.518-.829-.804.05-.104.118-.197.197-.276l2.649-3.654a.897.897 0 01.639-.278h5.342c.534 0 .966-.498.966-1.112V.887c0-.348.142-.677.384-.887l1.468-1.275a.977.977 0 01.642-.248c.226 0 .452.083.643.248z" transform="matrix(1.33333 0 0 -1.33333 26.036 40.062)" clip-path="url(#prefix__l)" fill="#fff"/></svg>